<?xml version="1.0" encoding="utf-8"?>
<!-- Generator: Adobe Illustrator 27.5.0, SVG Export Plug-In . SVG Version: 6.00 Build 0)  -->
<svg version="1.1" id="Capa_1" xmlns="http://www.w3.org/2000/svg" xmlns:xlink="http://www.w3.org/1999/xlink" x="0px" y="0px"
	 viewBox="0 0 2122 2122" style="enable-background:new 0 0 2122 2122;" xml:space="preserve">
<g>
	<rect x="0.005" y="4.998" style="fill:#FFFFFF;" width="2121.301" height="2121.301"/>
	<g>
		<path style="fill:#C4E9FB;" d="M1527.606,1526.675c84.33-38.547,289.127-166.839,272.582-244.5
			c-16.136-75.751-146.386-47.761-200.115-61.032c-23.853-5.89-98.552-24.755-109.168-52.686
			c-17.617-46.533,158.434-82.459,184.637-88.73c53.378-12.779,213.776-97.874,215.969-185.095
			c2.324-92.854-156.325-188.122-189.641-201.133c-58.006-22.647-175.93-54.711-202.103-118.447
			c-40.886-99.553,183.969-94.944,172.179-187.684c-34.65-272.624-1406.233-140.803-1457.76-86.087
			c-72.111,76.584,33.573,125.117,96.048,139.419c28.453,6.512,151.579,24.336,143.122,64.241
			c-11.732,55.346-128.062,49.832-164.666,62.343c-55.678,19.032-63.113,56.087-51.235,110.798
			c21.408,98.564,98.26,169.304,145.3,255.138c55.371,101.047,78.065,216.398,126.776,320.455
			c67.089,143.302,198.293,268.762,344.284,330.414c78.913,33.324,181.022-17.891,266.545-27.654
			C1303.247,1535.552,1360.879,1602.879,1527.606,1526.675z"/>
		<path style="fill:#FEECBB;" d="M1487.285,1662.849c89.5,5.491,176.076,7.133,212.227,13.452
			c45.037,7.868,262.77,43.307,228.149,135.429c-11.869,31.571-77.359,40.799-106.689,46.119
			c-72.623,13.169-1060.502,47.629-1289.396-29.067c-35.093-11.761-140.408-58.655-58.392-93.134
			c52.482-22.061,113.217-22.587,169.416-24.36c234.965-7.45-101.792-57.598-166.736-82.182
			c-24.604-9.315-66.641-27.03-78.791-54.645c-49.997-113.656,873.804-198.323,1085.427-114.289
			c67.478,26.786,79.054,56.009,18.475,81.012c-46.402,19.143-97.076,20.477-145.957,28.628
			C1311.375,1577.091,1365.863,1655.395,1487.285,1662.849z"/>
		<g>
			<g>
				<path style="fill:#94D9F8;" d="M327.588,1320.402c-30.82-42.572-58.396-94.513-78.956-157.908
					c15.415-1.388,30.236-5.237,44.248-16.955c-23.279-12.429-44.394-28.506-61.856-48.16
					c-12.424-56.409-19.649-120.442-19.781-193.104c19.81,4.779,39.785,8.131,61.354,6.908
					c-19.074-23.673-38.923-45.169-59.98-65.561c2.017-42.202,6.28-87.032,13.135-134.71c0,0,50.485,28.913,116.783,81.424
					c5.447,23.427,10.709,46.713,17.369,69.322c7.167-13.418,11.727-27.747,15.508-42.339
					c46.299,39.371,97.022,88.574,142.371,146.079c-1.998,17.963-6.655,35.727-13.817,52.633
					c15.113-5.359,30.625-7.659,46.547-8.126c22.626,33.125,42.982,68.55,59.542,106.035c-4.94,30.923-13.203,60.336-36.029,83.585
					c22.334,5.545,42.543-11.693,63.366-6.913c8.672,31.917,14.275,65.056,16.088,99.288c6.042,37.641-5.427,89.889-9.086,117.631
					c-6.728,32.36-17.101,65.471-31.722,99.264c0,0-137.889-20.395-252.041-147.448c10.88-5.389,21.418-11.489,31.025-19.517
					C369.828,1335.222,348.479,1328.373,327.588,1320.402z"/>
				<path style="fill:#94D9F8;" d="M248.631,1162.494c15.415-1.388,30.236-5.237,44.248-16.955
					c-23.279-12.429-44.394-28.506-61.856-48.16c-12.424-56.409-19.649-120.442-19.781-193.104
					c19.81,4.779,39.785,8.131,61.354,6.908c-19.074-23.673-38.923-45.169-59.98-65.561c2.017-42.202,6.28-87.032,13.135-134.71
					l386.92,797.883c0,0-137.889-20.395-252.041-147.448c10.88-5.389,21.418-11.489,31.025-19.517
					c-21.827-6.607-43.176-13.457-64.068-21.428C296.767,1277.829,269.191,1225.889,248.631,1162.494z"/>
			</g>
			<g>
				<path style="fill:#73C1BB;" d="M644.867,1124.272c9.949-59.722,30.206-124.374,65.529-192.544
					c13.612,11.518,28.765,20.55,49.715,22.548c-8.653-29.145-12.57-59.473-10.592-89.685
					c36.18-55.849,82.815-113.602,142.269-172.53c12.122,20.105,25.544,39.198,44,55.88c3.966-34.794,5.525-68.46,5.193-102.228
					c36.229-32.509,76.423-65.305,121.051-98.279c0,0,17.16,64.786,27.781,161.638c-14.791,23.427-29.612,46.592-42.757,70.35
					c16.799-4.987,32.238-12.845,47.259-21.556c5.204,69.814,5.934,151.216-4.497,234.943
					c-16.336,12.906-34.674,23.459-54.329,31.284c16.628,8.044,31.074,18.894,44.341,31.571
					c-8.833,45.359-21.393,90.718-38.718,134.644c-29.345,20.969-60.146,38.012-97.675,38.119
					c13.534,22.792,44.014,25.408,56.954,46.343c-19.147,32.94-41.768,64.365-68.355,93.553
					c-25.968,35.425-78.085,68.316-103.784,87.775c-31.971,20.677-67.508,38.976-107.034,54.348c0,0-94.908-129.543-83.161-325.955
					c13.223,4.56,26.758,8.263,41.115,9.637C666.917,1170.893,655.244,1147.843,644.867,1124.272z"/>
				<path style="fill:#73C1BB;" d="M710.396,931.728c13.612,11.518,28.765,20.55,49.715,22.548
					c-8.653-29.145-12.57-59.473-10.592-89.685c36.18-55.849,82.815-113.602,142.269-172.53c12.122,20.105,25.544,39.198,44,55.88
					c3.966-34.794,5.525-68.46,5.193-102.228c36.229-32.509,76.423-65.305,121.051-98.279l-340.815,963.012
					c0,0-94.908-129.543-83.161-325.955c13.223,4.56,26.758,8.263,41.115,9.637c-12.253-23.235-23.927-46.284-34.304-69.856
					C654.815,1064.55,675.073,999.898,710.396,931.728z"/>
			</g>
			<path style="fill:#FBD759;" d="M1143.434,1309.011c6.86-54.742-16.745-106.815-77.047-103.395
				c-44.307,2.514-75.736,30.879-107.877,55.006c-18.514,13.89-38.928,41.88-63.366,39.045
				c1.773-18.494,15.205-36.472,25.948-51.814c67.05-95.8,127.882-358.687-49.349-381.682c-53.1-6.884-98.489,1.851-113.09,58.479
				c-12.896,50.012,27.697,89.329,32.365,138.942c4.857,51.717-16.663,87.312-71.151,87.156
				c-38.548-0.107-102.221-31.942-138.796-10.046c-77.427,46.353-19.829,125.563,22.373,174.025
				c24.779,28.448,53.466,53.233,78.187,81.446c28.185,32.18,47.395,77.135,86.055,99.429
				C863.261,1550.704,1129.12,1423.232,1143.434,1309.011z"/>
			<path style="fill:#16123E;" d="M921.229,1429.307c-1.418-4.677-3.61-9.51-6.675-14.494
				c-19.625-31.961-84.862,15.386-108.111,26.465c33.456-42.378,13.32-162.211-46.976-173.923
				c-67.449-13.091-60.272,95.215-67.395,134.678c-9.467-50.343-48.628-101.509-89.349-130.927
				c-25.149-18.173-86.333-35.732-108.472-5.798c-32.136,43.434,36.54,113.451,55.873,147.614
				c-11.669-20.618-80.818-12.01-96.077-0.166c-27.03,20.974-25.471,60.267-8.317,86.942
				c38.869,60.438,142.376,52.687,205.07,55.508c54.065,2.431,109.222,2.553,161.694-12.083
				C856.996,1530.714,939.563,1489.94,921.229,1429.307z"/>
		</g>
	</g>
</g>
<g>
	<path style="fill:#16123E;" d="M1418.043,443.45c0,0,35.814-60.652,99.546-39.79c52.083,17.055,46.446,93.303,87.453,111.037
		c41.004,17.734,72.721,53.926,59.371,98.301c-13.359,44.375-26.173,118.218,9.286,156.135
		c35.464,37.924,26.713,100.696-22.139,110.632c-48.857,9.944-118.918-49.232-108.369-104.177
		c10.538-54.945-27.615-69.273-55.108-85.848c-27.498-16.56-53.447-64.075-38.733-103.451c14.714-39.379,15.542-34.994-4.375-68.911
		c-19.927-33.92-26.056-68.302-26.056-68.302L1418.043,443.45"/>
	<path style="fill:#5A92CD;" d="M1658.957,698.271c0.585-11.43,0.014-23.006-2.475-34.96c-4.375-21.101-29.778-40.26-49.539-46.891
		c-24.94-8.372-57.062-2.919-83.293-2.356c-21.408,0.47-47.639-1.149-67.351,8.563c-51.483,25.372-29.953,110.986-25.535,155.137
		c5.452,54.489,6.056,110.464,4.936,165.438c-0.244,12.316-0.312,25.71,9.032,34.682c12.989,12.446,34.368,17.208,51.644,19.006
		c41.266,4.307,93.417,27.347,124.33,0.648c52.974-45.761,22.738-170.354,28.136-231.296
		C1650.869,743.391,1657.778,721.292,1658.957,698.271z"/>
	<path style="fill:#435C88;" d="M1375.754,1065.861c1.393-17.106,4.492-36.102,9.915-51.105l86.425,6.392h16.916h16.901
		l86.435-6.392c5.408,15.003,8.521,34,9.905,51.105c0.506,6.227,0.141,12.005-0.463,17.769
		c-5.398,51.517-95.877,22.211-95.877,22.211h-16.901h-16.916c0,0-90.474,29.305-95.872-22.211
		C1375.622,1077.866,1375.247,1072.088,1375.754,1065.861z"/>
	<g>
		<path style="fill:#A6635A;" d="M1533.692,1724.642c-13.17,15.25-6.826,38.982,11.61,39.147
			c18.436,0.141,103.609,6.3,101.544-10.577c-0.478-3.898-41.295-21.092-69.505-30.285
			C1553.789,1715.258,1543.09,1713.738,1533.692,1724.642z"/>
	</g>
	<g>
		<g>
			<path style="fill:#F9AF8B;" d="M1577.34,1722.927c0,0-5.866-18.967-3.897-48.75l-35.303,1.154
				c1.047,30.392-0.994,45.919-0.994,45.919s12.053,15.82,38.362,13.131C1601.818,1731.682,1577.34,1722.927,1577.34,1722.927z"/>
		</g>
	</g>
	<g>
		<path style="fill:#435C88;" d="M1602.363,1067.21l-11.05,317.021c-0.117,21.769-16.867,46.265-37.535,46.265
			c-20.657,0-37.417-24.496-37.417-54.703c0,0-17.125-303.798-17.125-303.827L1602.363,1067.21z"/>
		<path style="fill:#435C88;" d="M1533.326,1715.726l-16.965-335.164c0-30.207,16.76-54.694,37.417-54.694
			c20.667,0,37.417,24.487,37.417,54.694l-8.341,335.164H1533.326z"/>
	</g>
	<g>
		<path style="fill:#A6635A;" d="M1444.353,1724.642c13.164,15.25,6.82,38.982-11.62,39.147
			c-18.431,0.141-103.604,6.3-101.533-10.577c0.477-3.898,41.291-21.092,69.51-30.285
			C1424.25,1715.258,1434.959,1713.738,1444.353,1724.642z"/>
	</g>
	<g>
		<g>
			<path style="fill:#F9AF8B;" d="M1400.708,1722.927c0,0,5.856-18.967,3.888-48.75l35.293,1.154
				c-1.043,30.392,1.009,45.919,1.009,45.919s-12.058,15.82-38.363,13.131C1376.226,1731.682,1400.708,1722.927,1400.708,1722.927z"
				/>
		</g>
	</g>
	<g>
		<path style="fill:#435C88;" d="M1375.686,1067.21l11.04,317.021c0.117,21.769,16.867,46.265,37.544,46.265
			c20.647,0,37.407-24.496,37.407-54.703c0,0,17.13-303.798,17.13-303.827L1375.686,1067.21z"/>
		<path style="fill:#435C88;" d="M1444.718,1715.726l16.96-335.164c0-30.207-16.76-54.694-37.407-54.694
			c-20.677,0-37.427,24.487-37.427,54.694l8.35,335.164H1444.718z"/>
	</g>
	<path style="fill:#73C1BB;" d="M1399.052,839.551c-30.187-93.587-15.045-190.578-15.045-190.578l82.582-25.632h44.823
		l82.581,25.632c0,0,15.147,96.991-15.035,190.578c-25.12,77.817,17.861,185.514,17.861,185.514s-44.686,16.611-107.809,18.984
		c-63.142-2.373-107.819-18.984-107.819-18.984S1424.177,917.368,1399.052,839.551z"/>
	<g>
		<path style="fill:#F9AF8B;" d="M1515.64,594.971c0,0-63.307,10.633-81.982-2.887c-30.519-22.11-6.909-129.76-6.909-129.76h88.891
			V594.971z"/>
		<path style="fill:#16123E;" d="M1495.84,407.039c19.254,1.946,53.359,51.132,67.531,111.979
			c5.885,25.232-47.059,45.39-51.005,13.345c-2.329-18.819,4.482,15.593-27.79-54.74c-2.432-5.276-63.936,35.108-79.264,2.324
			C1393.001,453.623,1407.948,398.164,1495.84,407.039z"/>
		<path style="fill:#F9AF8B;" d="M1527.187,535.652c0,9.06-7.337,16.402-16.399,16.402s-16.395-7.342-16.395-16.402
			c0-9.055,7.333-16.397,16.395-16.397S1527.187,526.597,1527.187,535.652z"/>
		<path style="fill:#F9AF8B;" d="M1463.363,560.248h52.268v77.637c0,0-2.519,19.213-26.139,19.213
			c-23.615,0-26.129-19.213-26.129-19.213V560.248z"/>
	</g>
	<g>
		<path style="fill:#73C1BB;" d="M1711.497,862.25c10.465,9.701,18.231,18.443,31.113,4.539l0,0
			c12.877-13.9,14.835-33.033,4.385-42.735c0,0-122.172-159.568-143.073-171.302c-20.916-11.734-28.121-3.866-45.437,14.804l0,0
			c-7.211,10.441,8.575,31.885,21.408,43.78L1711.497,862.25z"/>
	</g>
	<g>
		<path style="fill:#F9AF8B;" d="M1108.618,931.514c6.636,9.671,1.491,24.287-11.469,32.648c-0.516,0.331-1.004,0.587-1.481,0.872
			v0.022c0,0-0.292,0.17-0.804,0.448c-0.034,0.015-0.063,0.034-0.083,0.051c-4.17,2.278-22.061,11.836-34.66,15.072
			c-3.688,0.942-6.948,1.362-9.247,0.853c-3.557-0.753-7.727-6.112-10.241-11.528c-0.215-0.47-0.999-2.395-1.179-2.877
			c-0.916-2.624-5.69-12.504-3.751-14.117c8.633-7.206,22.655-14.555,31.629-18.746c-4.331-0.477-8.619-1.179-10.397-2.183
			c-1.359-0.765-3.659-6.28-2.173-7.846c5.086-5.318,40.613-0.4,40.613-0.4l-0.015,0.01
			C1100.896,924.61,1105.676,927.202,1108.618,931.514z"/>
		<path style="fill:#73C1BB;" d="M1239.385,839.761c-7.298,12.263-14.217,21.676,2.076,31.379l0,0
			c16.277,9.69,35.4,7.61,42.699-4.653c0,0,130.522-152.805,137.631-175.706c7.098-22.911-2.1-28.306-23.985-41.339l0,0
			c-11.703-4.865-29.379,15.057-38.333,30.087L1239.385,839.761z"/>
		<path style="fill:#73C1BB;" d="M1092.122,922.32l162.849-93.52c13.228-5.401,24.034-13.569,31.201,3.973
			c7.167,17.537,2.276,36.131-10.947,41.537l-169.791,83.695L1092.122,922.32z"/>
	</g>
	<g>
		<path style="fill:#5A92CD;" d="M1565.413,642.416c0,0-0.263,0.828-0.75,2.382c-0.448,1.481-1.442,3.929-1.998,6.485
			c-0.322,1.299-0.682,2.735-1.077,4.299c-0.283,1.678-0.716,3.42-1.111,5.294c-0.677,3.795-1.281,8.075-1.749,12.764
			c-0.477,4.685-0.701,9.805-0.848,15.206c0,5.439,0.049,11.157,0.419,17.12c0.667,11.908,2.09,24.682,4.17,37.478
			c3.956,25.615,10.046,51.32,14.762,70.682c2.329,9.701,4.483,17.759,6.022,23.371c1.564,5.613,2.534,8.731,2.534,8.731
			l0.015,0.036c0.696,2.234-0.551,4.609-2.782,5.306c-1.559,0.487-3.196,0.022-4.268-1.06c0,0-2.631-2.648-6.285-7.701
			c-3.693-5.037-8.458-12.49-13.301-21.834c-4.818-9.352-9.763-20.592-13.954-33.06c-4.239-12.448-7.79-26.107-10.07-40.102
			c-1.116-6.994-1.954-14.073-2.402-21.091c-0.429-7.031-0.575-13.983-0.185-20.76c0.273-6.758,1.125-13.323,2.144-19.493
			c1.189-6.182,2.621-11.971,4.395-17.211c1.739-5.247,3.844-9.905,5.866-13.917c1.091-1.986,2.046-3.852,3.05-5.515
			c1.12-1.674,2.153-3.213,3.089-4.602c1.813-2.896,3.493-4.309,4.531-5.635c1.096-1.203,1.681-1.844,1.681-1.844
			c1.778-1.956,4.808-2.097,6.767-0.317C1565.501,638.727,1565.959,640.693,1565.413,642.416z"/>
	</g>
	<path style="fill:#F9AF8B;" d="M1574.125,755.14c-5.291,10.47-20.59,12.991-34.163,5.632c-0.521-0.282-0.979-0.58-1.471-0.875
		v0.027c0,0-0.302-0.193-0.789-0.504c-0.029-0.017-0.058-0.036-0.078-0.049c-4.005-2.555-20.994-13.644-29.886-23.138
		c-2.611-2.789-4.541-5.442-5.198-7.698c-1.047-3.476,1.652-9.708,5.198-14.526c0.292-0.417,1.598-2.019,1.939-2.409
		c1.871-2.063,8.253-11.003,10.592-10.087c10.456,4.109,28.999,12.665,36.979,18.519l1.149-15.893
		c7.123,1.898,16.126,35.673,16.126,35.673l-0.01-0.007C1576.454,745.055,1576.473,750.49,1574.125,755.14z"/>
	<path style="fill:#73C1BB;" d="M1573.554,736.575l160.988,97.517c11.098,8.989,23.459,14.533,11.527,29.259
		c-11.941,14.719-30.607,19.367-41.69,10.373l-155.024-108.644L1573.554,736.575z"/>
</g>
<g>
	<path style="fill:#16123E;" d="M1229.319,634.108c0.624-12.17,0.025-24.492-2.621-37.222
		c-4.667-22.456-31.703-42.862-52.745-49.919c-26.552-8.906-60.735-3.106-88.671-2.5c-22.796,0.497-50.713-1.225-71.697,9.113
		c-54.811,27.003-31.893,118.155-27.181,165.146c5.802,58.007,6.446,117.595,5.257,176.127c-0.268,13.108-0.331,27.376,9.612,36.913
		c13.827,13.257,36.58,18.322,54.972,20.241c43.927,4.58,89.938-14.411,122.854-42.832c56.394-48.706,33.715-137.838,39.463-202.717
		C1220.715,682.135,1228.072,658.615,1229.319,634.108z"/>
	<path style="fill:#435C88;" d="M1119.249,364.937c0-9.053,3.722-14.139,10.738-14.139c9.418,0,13.057,4.914,13.057,13.968
		L1119.249,364.937z"/>
	<g>
		<path style="fill:#FFFFFF;" d="M1236.802,994.648c0,0.051-4.648,376.213-4.648,376.213c0,32.166-17.958,58.226-40.126,58.226
			c-22.163,0-40.131-26.06-40.131-58.226c0,0-18.372-336.889-18.372-336.93L1236.802,994.648z"/>
		<path style="fill:#FFFFFF;" d="M1170.084,1732.739l-18.187-356.796c0-32.151,17.968-58.236,40.131-58.236
			c22.168,0,40.126,26.085,40.126,58.236l-8.945,356.796H1170.084z"/>
	</g>
	<path style="fill:#FBAA3B;" d="M1169.992,1778.527h116.189c0,0,19.43,2.042,20.819-2.85c6.821-23.742-60.492-42.704-84.258-49.52
		c-12.667-3.635-52.75,0-52.75,0V1778.527z"/>
	<g>
		<path style="fill:#F9AF8B;" d="M915.388,853.731c-10.509,12.031-23.698,15.681-39.673,1.727l0,0
			c-15.961-13.954-20.385-35.008-9.876-47.037c0,0,117.193-191.896,139.083-207.406c21.89-15.517,30.83-7.595,52.297,11.15l0,0
			c21.457,18.753-0.239,43.459-13.126,58.202L915.388,853.731z"/>
		<path style="fill:#435C88;" d="M1057.218,612.165c-21.466-18.745-31.766-27.101-53.661-11.586
			c-11.099,7.859-45.32,61.49-77.719,112.036c23.459,10.806,39.405,31.493,51.098,53.425l67.156-95.673
			C1056.979,655.623,1078.675,630.917,1057.218,612.165z"/>
	</g>
	<path style="fill:#435C88;" d="M1012.946,597.069c17.418-12.711,102.727-29.992,109.607-29.423
		c6.879-0.57,92.189,17.208,109.602,29.917c20.785,15.159,9.969,124.225,4.648,229.757c-3.893,77.283-0.058,169.131-0.058,169.131
		c-4.166,0.068-77.963-0.986-114.192-1.513c-36.239,0.526-110.031,1.581-114.201,1.513c0,0,3.834-83.127-0.058-160.405
		C1002.977,730.517,992.162,612.228,1012.946,597.069z"/>
	<path style="fill:#FFFFFF;" d="M1104.443,994.648h36.224h96.135c-0.507,43.481-19.094,78.56-58.27,78.56h-37.865h-36.224h-37.88
		c-39.162,0-57.763-35.079-58.27-78.56H1104.443z"/>
	<g>
		<path style="fill:#FFFFFF;" d="M1008.293,994.648c0,0.051,4.653,376.213,4.653,376.213c0,32.166,17.963,58.226,40.131,58.226
			c22.158,0,40.126-26.06,40.126-58.226c0,0,18.367-336.889,18.367-336.93L1008.293,994.648z"/>
		<path style="fill:#FFFFFF;" d="M1075.011,1732.739l18.192-356.796c0-32.151-17.968-58.236-40.126-58.236
			c-22.168,0-40.131,26.085-40.131,58.236l8.95,356.796H1075.011z"/>
	</g>
	<path style="fill:#FBAA3B;" d="M1075.108,1778.527H958.92c0,0-19.42,2.042-20.819-2.85c-6.816-23.742,60.497-42.704,84.243-49.52
		c12.682-3.635,52.764,0,52.764,0V1778.527z"/>
	<g>
		<path style="fill:#F9AF8B;" d="M1087.415,580.119c0,0,2.675,20.46,27.815,20.46c25.135,0,27.815-20.46,27.815-20.46v-82.647
			h-55.629V580.119z"/>
		<path style="fill:#F9AF8B;" d="M1087.415,534.436c0,0,81.256,17.795,98.153,0c43.39-45.69-3.518-141.212-3.518-141.212h-94.635
			V534.436z"/>
		<path style="fill:#16123E;" d="M1183.064,415.881c16.721-23.629-7.674-42.95-16.054-45.439
			c-19.288-5.742-59.805-12.224-67.912,1.637c-3.849,6.56-13.437,13.576-18.007,21.145c-7.201,11.893-10.768,85.987,10.674,77.232
			c13.647-5.566,9.681-31.332,15.742-41.235C1116.901,413.879,1166.109,439.837,1183.064,415.881z"/>
		<path style="fill:#F9AF8B;" d="M1075.118,471.289c0,9.637,7.82,17.457,17.462,17.457c9.642,0,17.456-7.82,17.456-17.457
			c0-9.642-7.815-17.456-17.456-17.456C1082.938,453.833,1075.118,461.647,1075.118,471.289z"/>
	</g>
	<path style="fill:#73C1BB;" d="M1075.518,432.405c0.005-47.734,19.576-74.535,56.632-74.535c49.608,0,68.847,25.897,68.847,73.632
		L1075.518,432.405z"/>
	<polygon style="fill:#435C88;" points="1104.01,432.405 1248.018,432.405 1229.606,424.814 1104.01,424.814 	"/>
	<g>
		<path style="fill:#16123E;" d="M1034.144,582.591c0,0,0.633,0.711,1.822,2.042c1.13,1.445,2.953,3.05,4.921,6.275
			c0.984,1.518,2.207,3.25,3.298,5.121c1.072,1.846,2.095,3.92,3.259,6.127c1.062,2.232,2.061,4.653,3.187,7.213
			c1.072,2.573,1.841,5.352,2.835,8.241c0.887,2.899,1.627,5.944,2.485,9.113c0.672,3.167,1.296,6.475,1.861,9.871
			c0.955,6.792,1.715,14.01,1.818,21.413c0.404,14.84-1.023,30.494-3.786,45.761c-1.393,7.64-3.099,15.179-5.047,22.521
			c-1.983,7.325-4.146,14.467-6.577,21.252c-4.736,13.608-10.192,25.902-15.576,36.102c-2.577,5.147-5.277,9.72-7.727,13.734
			c-2.421,4.039-4.779,7.43-6.772,10.207c-3.976,5.549-6.835,8.475-6.835,8.475c-1.735,1.779-4.589,1.813-6.363,0.076
			c-1.262-1.228-1.647-3.016-1.15-4.585l0.019-0.046c0,0,1.087-3.412,2.845-9.581c1.764-6.153,4.122-15.035,6.899-25.649
			c5.31-21.3,12.433-49.498,17.276-77.663c1.344-7.026,2.26-14.068,3.293-20.974c0.789-6.908,1.676-13.705,2.105-20.253
			c0.555-6.565,0.74-12.863,0.838-18.845c0.009-5.963-0.117-11.588-0.507-16.76c-0.492-5.142-1.072-9.846-1.744-14.027
			c-0.419-2.048-0.877-3.961-1.174-5.795c-0.351-1.783-0.804-3.259-1.145-4.719c-0.585-2.787-1.646-5.454-2.163-7.089
			c-0.545-1.7-0.838-2.607-0.838-2.607c-0.858-2.677,0.614-5.544,3.293-6.402C1030.763,580.506,1032.844,581.147,1034.144,582.591z"
			/>
	</g>
	<g>
		<path style="fill:#F9AF8B;" d="M1017.111,694.909c8.633,9.893,25.91,8.407,38.597-3.298c0.497-0.47,0.916-0.916,1.354-1.367
			l0.029,0.022c0,0,0.263-0.29,0.711-0.763c0.019-0.026,0.048-0.051,0.068-0.078c3.625-3.873,19.001-20.58,26.017-33.334
			c2.07-3.737,3.41-7.15,3.518-9.778c0.171-4.056-4.468-10.08-9.637-14.319c-0.438-0.363-2.309-1.754-2.777-2.068
			c-2.592-1.727-11.985-9.664-14.261-8.029c-10.212,7.349-22.1,20.482-29.14,29.028c0.692-4.818,1.125-9.666,0.546-11.861
			c-0.448-1.686-5.783-5.73-7.893-4.548c-7.181,4.022-11.791,43.88-11.791,43.88v-0.007
			C1011.806,684.617,1013.282,690.519,1017.111,694.909z"/>
		<path style="fill:#F9AF8B;" d="M1016.371,672.025l-153.84,145.636c-9.549,12.811-16.429,27.052,0.584,39.724
			c17.008,12.665,38.519,12.553,48.078-0.251l137.328-161.155L1016.371,672.025z"/>
	</g>
	<g>
		<path style="fill:#F9AF8B;" d="M1335.725,853.731c10.504,12.031,23.693,15.681,39.668,1.727l0,0
			c15.961-13.954,20.39-35.008,9.881-47.037c0,0-117.202-191.896-139.098-207.406c-21.88-15.517-30.82-7.595-52.287,11.15l0,0
			c-21.457,18.753,0.244,43.459,13.126,58.202L1335.725,853.731z"/>
		<path style="fill:#435C88;" d="M1193.889,612.165c21.467-18.745,30.597-27.958,52.482-12.444
			c11.108,7.859,46.503,62.348,78.898,112.893c-23.454,10.806-39.405,31.493-51.098,53.425l-67.156-95.673
			C1194.133,655.623,1172.433,630.917,1193.889,612.165z"/>
	</g>
	<g>
		<path style="fill:#16123E;" d="M1222.313,591.044c0,0-0.282,0.882-0.799,2.533c-0.478,1.578-1.54,4.185-2.134,6.906
			c-0.341,1.381-0.726,2.911-1.145,4.577c-0.297,1.785-0.765,3.639-1.184,5.632c-0.721,4.044-1.364,8.599-1.91,13.578
			c-0.507,4.992-0.678,10.453-0.848,16.197c-0.01,5.793,0.048,11.876,0.443,18.226c0.268,6.329,0.999,12.906,1.647,19.591
			c0.824,6.684,1.627,13.498,2.792,20.304c4.185,27.274,10.738,54.611,15.659,75.259c2.582,10.29,4.794,18.894,6.465,24.862
			c1.661,5.975,2.694,9.296,2.694,9.296l0.014,0.039c0.741,2.377-0.589,4.906-2.967,5.647c-1.656,0.519-3.401,0.022-4.541-1.13
			c0,0-2.796-2.819-6.694-8.197c-1.949-2.692-4.248-5.983-6.597-9.905c-2.387-3.9-5.013-8.348-7.503-13.354
			c-5.203-9.927-10.436-21.907-14.909-35.174c-4.517-13.252-8.292-27.79-10.718-42.689c-1.189-7.444-2.085-14.981-2.563-22.452
			c-0.448-7.484-0.604-14.884-0.185-22.097c0.282-7.196,1.189-14.183,2.275-20.753c1.243-6.585,2.841-12.735,4.735-18.309
			c1.788-5.598,4.034-10.558,6.193-14.826c1.159-2.114,2.177-4.102,3.244-5.871c1.199-1.783,2.295-3.42,3.284-4.899
			c1.939-3.084,3.722-4.585,4.833-5.998c1.164-1.281,1.783-1.963,1.783-1.963c1.901-2.083,5.126-2.232,7.201-0.336
			C1222.401,587.117,1222.888,589.21,1222.313,591.044z"/>
	</g>
	<g>
		<path style="fill:#F9AF8B;" d="M1233.986,694.909c-8.628,9.893-25.9,8.407-38.586-3.298c-0.497-0.47-0.916-0.916-1.354-1.367
			l-0.02,0.022c0,0-0.273-0.29-0.721-0.763c-0.019-0.026-0.048-0.051-0.068-0.078c-3.625-3.873-19.001-20.58-26.017-33.334
			c-2.066-3.737-3.411-7.15-3.518-9.778c-0.166-4.056,4.463-10.08,9.637-14.319c0.438-0.363,2.309-1.754,2.782-2.068
			c2.587-1.727,11.976-9.664,14.261-8.029c10.207,7.349,22.095,20.482,29.125,29.028c-0.682-4.818-1.12-9.666-0.536-11.861
			c0.448-1.686,5.778-5.73,7.893-4.548c7.182,4.022,11.79,43.88,11.79,43.88l-0.005-0.007
			C1239.307,684.617,1237.826,690.519,1233.986,694.909z"/>
		<path style="fill:#F9AF8B;" d="M1234.727,672.025l153.854,145.636c9.535,12.811,16.409,27.052-0.589,39.724
			c-17.003,12.665-38.519,12.553-48.068-0.251l-137.339-161.155L1234.727,672.025z"/>
	</g>
</g>
<g>
	<path style="fill:#435C88;" d="M984.03,384.194c0,104.803-136.778,189.762-305.508,189.762
		c-168.719,0-305.497-32.93-305.497-189.762c0-156.834,136.778-189.762,305.497-189.762
		C847.252,194.432,984.03,279.391,984.03,384.194z"/>
	<path style="fill:#435C88;" d="M897.522,612.537c-78.737-27.439-57.173-82.633-68.964-98.082
		c-16.487-21.605-87.989-37.203-105.651-11.673C696.437,541.045,791.871,641.624,897.522,612.537z"/>
</g>
</svg>
