<?xml version="1.0" encoding="utf-8"?>
<!-- Generator: Adobe Illustrator 27.5.0, SVG Export Plug-In . SVG Version: 6.00 Build 0)  -->
<svg version="1.1" xmlns="http://www.w3.org/2000/svg" xmlns:xlink="http://www.w3.org/1999/xlink" x="0px" y="0px"
	 viewBox="0 0 3710 3710" style="enable-background:new 0 0 3710 3710;" xml:space="preserve">
<g id="Background">
	<g>
		<g>
			<rect style="fill:#FFFFFF;" width="3710" height="3710"/>
		</g>
	</g>
</g>
<g id="Illustration">
	<g>
		<linearGradient id="SVGID_1_" gradientUnits="userSpaceOnUse" x1="3600.3857" y1="4044.3428" x2="1128.7731" y2="974.7549">
			<stop  offset="0" style="stop-color:#DAE3FE"/>
			<stop  offset="1" style="stop-color:#E9EFFD"/>
		</linearGradient>
		<path style="fill:url(#SVGID_1_);" d="M2929.582,2827.45c-57.274,59.42-111.465,97.74-154.281,128.015
			c-503.292,355.877-1098.821,252.141-1225.388,226.807c-186.899-37.409-548.171-109.721-809.364-412.421
			c-395.164-457.96-333.631-1179.464-27.115-1655.739c56.066-87.119,352.226-570.648,954.169-648.191
			c364.289-46.928,788.934,47.72,1096.45,301.619C3409.555,1300.495,3363.602,2377.159,2929.582,2827.45z"/>
		<g>
			<path style="fill:#BDD0FB;" d="M773.119,454.769c-51.766,194.466-306.049,1339.224,741.725,1789.326
				c0,0,364.373-707.196-712.792-1796.553C792.629,438.012,776.5,442.065,773.119,454.769z"/>
			<path style="opacity:0.86;fill:#FFFFFF;" d="M855.458,643.977c6.762,68.001,16.408,135.835,27.381,203.353
				c11.032,67.53,23.711,134.791,38.068,201.685c28.786,133.754,63.857,266.226,107.603,395.805
				c43.809,129.477,96.046,256.357,161.386,376.3c16.251,30.017,33.548,59.451,51.666,88.347
				c8.951,14.52,18.453,28.678,27.837,42.913c9.719,14.005,19.303,28.104,29.481,41.772c40.106,55.104,84.84,106.802,134.13,153.662
				l0.039,0.038c2.691,2.558,2.797,6.813,0.24,9.503s-6.814,2.798-9.502,0.24l-0.023-0.021
				c-49.763-47.755-94.75-100.27-134.971-156.079c-10.208-13.847-19.812-28.114-29.544-42.288
				c-9.397-14.396-18.909-28.718-27.86-43.39c-18.121-29.205-35.396-58.926-51.607-89.208
				c-65.183-121.009-117.01-248.655-160.349-378.748c-43.27-130.192-77.787-263.124-105.995-397.262
				c-14.065-67.086-26.449-134.517-37.182-202.208c-10.671-67.71-20.006-135.593-26.472-203.92
				c-0.148-1.566,1.001-2.955,2.567-3.103c1.566-0.148,2.954,1.001,3.102,2.566L855.458,643.977z"/>
		</g>
		<g>
			<path style="fill:#91B3FA;" d="M458.244,875.154c-7.341,178.487-7.646,1218.92,968.63,1394.578
				c0,0,176.525-684.904-945.38-1406.705C471.679,856.713,458.724,863.494,458.244,875.154z"/>
			<path style="opacity:0.86;fill:#FFFFFF;" d="M564.336,1021.739c18.722,55.617,39.686,110.593,61.458,165.154
				c21.883,54.539,44.99,108.583,69.19,162.125c24.164,53.561,49.667,106.508,76.32,158.856
				c26.741,52.297,54.364,104.162,83.885,154.927c58.707,101.689,123.092,200.205,195.48,292.516l6.719,8.706l6.962,8.507
				l13.953,16.989l13.953,16.988c4.644,5.668,9.617,11.051,14.412,16.59c9.725,10.955,19.218,22.121,29.13,32.902l30.181,31.919
				c40.976,41.823,84.26,81.342,130.343,117.314l0.069,0.055c2.928,2.285,3.45,6.509,1.165,9.435
				c-2.285,2.927-6.509,3.447-9.437,1.163l-0.029-0.022c-46.477-36.687-89.981-76.86-131.081-119.275l-30.253-32.35
				c-9.929-10.92-19.431-22.217-29.166-33.306c-4.795-5.605-9.775-11.058-14.419-16.788l-13.953-17.175l-13.947-17.175l-6.958-8.599
				l-6.709-8.794c-72.302-93.254-136.389-192.516-194.715-294.842c-29.334-51.086-56.744-103.238-83.258-155.806
				c-26.426-52.618-51.693-105.815-75.607-159.608c-23.951-53.777-46.802-108.039-68.419-162.789
				c-21.519-54.8-42.184-109.892-60.686-165.865c-0.492-1.493,0.318-3.104,1.812-3.597c1.487-0.492,3.092,0.311,3.591,1.794
				L564.336,1021.739z"/>
		</g>
		<g>
			<g>
				
					<linearGradient id="SVGID_00000096741154524794129410000007312911267356778677_" gradientUnits="userSpaceOnUse" x1="968.9437" y1="1781.6735" x2="2688.8499" y2="1781.6735" gradientTransform="matrix(0.9998 -0.0219 0.0219 0.9998 28.2232 -27.654)">
					<stop  offset="0" style="stop-color:#09005D"/>
					<stop  offset="1" style="stop-color:#1A0F91"/>
				</linearGradient>
				<path style="fill:url(#SVGID_00000096741154524794129410000007312911267356778677_);" d="M1160.156,450.186
					c-66.685,5.799-117.812,61.647-118.002,128.584c-1.161,409.344-3.076,1821.28,23.604,2321.027
					c2.827,52.944,46.231,94.535,99.247,95.106c262.219,2.823,1016.483,8.01,1444.681-19.38
					c89.187-5.705,158.589-79.572,158.481-168.941c-0.52-429.621-7.385-1637.863-66.235-2190.136
					c-7.051-66.171-60.243-117.821-126.587-122.99C2289.357,471.172,1529.907,418.029,1160.156,450.186z"/>
				
					<linearGradient id="SVGID_00000127750420730301837380000001899087341544434077_" gradientUnits="userSpaceOnUse" x1="1223.5507" y1="766.3148" x2="4842.2393" y2="5842.6392" gradientTransform="matrix(1 -0.0042 0.0042 1 5.3179 -4.8586)">
					<stop  offset="0" style="stop-color:#FE7062"/>
					<stop  offset="1" style="stop-color:#FF928E"/>
				</linearGradient>
				<path style="fill:url(#SVGID_00000127750420730301837380000001899087341544434077_);" d="M1147.412,686.046
					c-5.15,350.158-19.812,1514.986,5.783,1944.903c3.741,62.838,52.552,112.449,112.823,114.549
					c248.153,8.648,884.5,25.383,1247.102-14.515c65.293-7.184,115.194-63.779,116.934-132.307
					c9.07-357.334,33.57-1442.237,8.695-1867.347c-3.969-67.817-55.78-121.93-120.728-126.306
					c-268.691-18.105-958.656-59.858-1267.001-34.18C1193.139,575.662,1148.304,625.425,1147.412,686.046z"/>
				<path style="opacity:0.34;fill:#FFFFFF;" d="M1207.015,752.304c-4.446,328.945-16.982,1423.211,6.67,1827.108
					c3.457,59.035,48.011,105.676,102.983,107.692c226.334,8.302,806.728,24.48,1137.411-12.741
					c59.545-6.702,105.018-59.833,106.555-124.209c8.016-335.685,29.583-1354.86,6.59-1754.239
					c-3.668-63.712-50.962-114.585-110.201-118.743c-245.073-17.201-874.387-56.921-1155.594-33.019
					C1248.641,648.639,1207.785,695.355,1207.015,752.304z"/>
				<path style="fill:#1F5AA9;" d="M1746.979,511.068c0.212,9.674,7.927,17.487,17.599,17.781
					c47.749,1.451,182.259,5.569,242.38,7.735c11.854,0.427,20.912-10.419,18.411-22.014c-0.206-0.365-1.746-15.232-16.929-16.288
					c-40.669-2.828-163.365-10.452-244.446-5.774C1747.345,493.468,1746.439,512.403,1746.979,511.068z"/>
			</g>
			<circle style="opacity:0.78;fill:#FFFFFF;" cx="1902.975" cy="1265.063" r="367.32"/>
			
				<linearGradient id="SVGID_00000023256863300514981490000016066446972491931801_" gradientUnits="userSpaceOnUse" x1="1975.4327" y1="1029.1438" x2="1107.4191" y2="2240.5493">
				<stop  offset="0" style="stop-color:#FE7062"/>
				<stop  offset="1" style="stop-color:#FF928E"/>
			</linearGradient>
			<path style="fill:url(#SVGID_00000023256863300514981490000016066446972491931801_);" d="M2015.436,1126.265
				c0,62.197-50.42,129.342-112.616,129.342c-62.197,0-112.617-67.145-112.617-129.342c0-62.196,50.42-106.321,112.617-106.321
				C1965.016,1019.943,2015.436,1064.068,2015.436,1126.265z"/>
			
				<linearGradient id="SVGID_00000062160632295345000930000008889720270898955165_" gradientUnits="userSpaceOnUse" x1="2101.2559" y1="1119.3005" x2="1233.243" y2="2330.7048">
				<stop  offset="0" style="stop-color:#FE7062"/>
				<stop  offset="1" style="stop-color:#FF928E"/>
			</linearGradient>
			<path style="fill:url(#SVGID_00000062160632295345000930000008889720270898955165_);" d="M1763.061,1495.068h274.916
				c28.939,0,54.561-18.703,63.379-46.266l14.793-46.237c10.832-33.854-6.778-70.507-40.161-82.713
				c-111.881-40.907-227.57-35.659-346.079,3.775c-33.2,11.047-51.624,46.559-42.463,80.329l11.391,41.991
				C1706.703,1474.94,1733.02,1495.068,1763.061,1495.068z"/>
		</g>
		<g>
			
				<linearGradient id="SVGID_00000124132751959083371540000011652740048982295726_" gradientUnits="userSpaceOnUse" x1="1386.931" y1="3474.0991" x2="1538.3511" y2="2179.467">
				<stop  offset="0" style="stop-color:#09005D"/>
				<stop  offset="1" style="stop-color:#1A0F91"/>
			</linearGradient>
			
				<rect x="969.915" y="2361.844" style="fill:url(#SVGID_00000124132751959083371540000011652740048982295726_);" width="1041.928" height="447.021"/>
			<g>
				<g>
					
						<linearGradient id="SVGID_00000014623542916048571650000003518321297142160796_" gradientUnits="userSpaceOnUse" x1="1050.291" y1="2608.208" x2="1009.9205" y2="2331.5964">
						<stop  offset="0" style="stop-color:#4F52FF"/>
						<stop  offset="1" style="stop-color:#4042E2"/>
					</linearGradient>
					<path style="fill:url(#SVGID_00000014623542916048571650000003518321297142160796_);" d="M1050.58,2416.663
						c0-2.432-1.971-4.403-4.402-4.403h-41.611c-2.431,0-4.402,1.971-4.402,4.403v41.61c0,2.431,1.971,4.403,4.402,4.403h41.611
						c2.431,0,4.402-1.971,4.402-4.403V2416.663z"/>
					
						<linearGradient id="SVGID_00000031172873836731107720000004572963053096533416_" gradientUnits="userSpaceOnUse" x1="1120.8733" y1="2608.208" x2="1080.5027" y2="2331.5964">
						<stop  offset="0" style="stop-color:#4F52FF"/>
						<stop  offset="1" style="stop-color:#4042E2"/>
					</linearGradient>
					<path style="fill:url(#SVGID_00000031172873836731107720000004572963053096533416_);" d="M1121.162,2416.663
						c0-2.432-1.971-4.403-4.403-4.403h-41.611c-2.431,0-4.402,1.971-4.402,4.403v41.61c0,2.431,1.971,4.403,4.402,4.403h41.611
						c2.431,0,4.403-1.971,4.403-4.403V2416.663z"/>
					
						<linearGradient id="SVGID_00000096740506559002995820000013559480757494452379_" gradientUnits="userSpaceOnUse" x1="1194.8165" y1="2608.208" x2="1154.446" y2="2331.5964">
						<stop  offset="0" style="stop-color:#4F52FF"/>
						<stop  offset="1" style="stop-color:#4042E2"/>
					</linearGradient>
					<path style="fill:url(#SVGID_00000096740506559002995820000013559480757494452379_);" d="M1195.105,2416.663
						c0-2.432-1.971-4.403-4.402-4.403h-41.611c-2.431,0-4.402,1.971-4.402,4.403v41.61c0,2.431,1.971,4.403,4.402,4.403h41.611
						c2.431,0,4.402-1.971,4.402-4.403V2416.663z"/>
					
						<linearGradient id="SVGID_00000011008362106559537870000006907424204402480313_" gradientUnits="userSpaceOnUse" x1="1265.3987" y1="2608.208" x2="1225.0282" y2="2331.5964">
						<stop  offset="0" style="stop-color:#4F52FF"/>
						<stop  offset="1" style="stop-color:#4042E2"/>
					</linearGradient>
					<path style="fill:url(#SVGID_00000011008362106559537870000006907424204402480313_);" d="M1265.688,2416.663
						c0-2.432-1.971-4.403-4.402-4.403h-41.611c-2.431,0-4.402,1.971-4.402,4.403v41.61c0,2.431,1.971,4.403,4.402,4.403h41.611
						c2.431,0,4.402-1.971,4.402-4.403V2416.663z"/>
					
						<linearGradient id="SVGID_00000047053698925984158480000005886477896581897618_" gradientUnits="userSpaceOnUse" x1="1335.9808" y1="2608.208" x2="1295.6104" y2="2331.5964">
						<stop  offset="0" style="stop-color:#4F52FF"/>
						<stop  offset="1" style="stop-color:#4042E2"/>
					</linearGradient>
					<path style="fill:url(#SVGID_00000047053698925984158480000005886477896581897618_);" d="M1336.27,2416.663
						c0-2.432-1.971-4.403-4.402-4.403h-41.611c-2.431,0-4.402,1.971-4.402,4.403v41.61c0,2.431,1.971,4.403,4.402,4.403h41.611
						c2.431,0,4.402-1.971,4.402-4.403V2416.663z"/>
					
						<linearGradient id="SVGID_00000181083750077695535860000014907507799214137787_" gradientUnits="userSpaceOnUse" x1="1409.9241" y1="2608.208" x2="1369.5536" y2="2331.5964">
						<stop  offset="0" style="stop-color:#4F52FF"/>
						<stop  offset="1" style="stop-color:#4042E2"/>
					</linearGradient>
					<path style="fill:url(#SVGID_00000181083750077695535860000014907507799214137787_);" d="M1410.213,2416.663
						c0-2.432-1.971-4.403-4.402-4.403H1364.2c-2.431,0-4.402,1.971-4.402,4.403v41.61c0,2.431,1.971,4.403,4.402,4.403h41.611
						c2.431,0,4.402-1.971,4.402-4.403V2416.663z"/>
					
						<linearGradient id="SVGID_00000035524221581091341450000008039376175086815405_" gradientUnits="userSpaceOnUse" x1="1480.5063" y1="2608.208" x2="1440.1357" y2="2331.5964">
						<stop  offset="0" style="stop-color:#4F52FF"/>
						<stop  offset="1" style="stop-color:#4042E2"/>
					</linearGradient>
					<path style="fill:url(#SVGID_00000035524221581091341450000008039376175086815405_);" d="M1480.795,2416.663
						c0-2.432-1.971-4.403-4.402-4.403h-41.611c-2.431,0-4.402,1.971-4.402,4.403v41.61c0,2.431,1.971,4.403,4.402,4.403h41.611
						c2.431,0,4.402-1.971,4.402-4.403V2416.663z"/>
					
						<linearGradient id="SVGID_00000181072893981261906300000005451070175513009592_" gradientUnits="userSpaceOnUse" x1="1551.0885" y1="2608.208" x2="1510.718" y2="2331.5964">
						<stop  offset="0" style="stop-color:#4F52FF"/>
						<stop  offset="1" style="stop-color:#4042E2"/>
					</linearGradient>
					<path style="fill:url(#SVGID_00000181072893981261906300000005451070175513009592_);" d="M1551.377,2416.663
						c0-2.432-1.971-4.403-4.402-4.403h-41.611c-2.431,0-4.402,1.971-4.402,4.403v41.61c0,2.431,1.971,4.403,4.402,4.403h41.611
						c2.431,0,4.402-1.971,4.402-4.403V2416.663z"/>
					
						<linearGradient id="SVGID_00000071540837671545456620000003754437807537487004_" gradientUnits="userSpaceOnUse" x1="1625.0317" y1="2608.208" x2="1584.6613" y2="2331.5964">
						<stop  offset="0" style="stop-color:#4F52FF"/>
						<stop  offset="1" style="stop-color:#4042E2"/>
					</linearGradient>
					<path style="fill:url(#SVGID_00000071540837671545456620000003754437807537487004_);" d="M1625.321,2416.663
						c0-2.432-1.971-4.403-4.402-4.403h-41.611c-2.431,0-4.402,1.971-4.402,4.403v41.61c0,2.431,1.971,4.403,4.402,4.403h41.611
						c2.431,0,4.402-1.971,4.402-4.403V2416.663z"/>
					
						<linearGradient id="SVGID_00000066474608365956887140000007044828865479541430_" gradientUnits="userSpaceOnUse" x1="1695.614" y1="2608.208" x2="1655.2434" y2="2331.5964">
						<stop  offset="0" style="stop-color:#4F52FF"/>
						<stop  offset="1" style="stop-color:#4042E2"/>
					</linearGradient>
					<path style="fill:url(#SVGID_00000066474608365956887140000007044828865479541430_);" d="M1695.903,2416.663
						c0-2.432-1.971-4.403-4.402-4.403h-41.611c-2.431,0-4.403,1.971-4.403,4.403v41.61c0,2.431,1.971,4.403,4.403,4.403h41.611
						c2.431,0,4.402-1.971,4.402-4.403V2416.663z"/>
					
						<linearGradient id="SVGID_00000016772701224220975930000012776322882215378324_" gradientUnits="userSpaceOnUse" x1="1766.1962" y1="2608.208" x2="1725.8257" y2="2331.5964">
						<stop  offset="0" style="stop-color:#4F52FF"/>
						<stop  offset="1" style="stop-color:#4042E2"/>
					</linearGradient>
					<path style="fill:url(#SVGID_00000016772701224220975930000012776322882215378324_);" d="M1766.485,2416.663
						c0-2.432-1.971-4.403-4.403-4.403h-41.611c-2.431,0-4.402,1.971-4.402,4.403v41.61c0,2.431,1.971,4.403,4.402,4.403h41.611
						c2.432,0,4.403-1.971,4.403-4.403V2416.663z"/>
					
						<linearGradient id="SVGID_00000000182749012951035550000009894431795244264625_" gradientUnits="userSpaceOnUse" x1="1840.1394" y1="2608.208" x2="1799.7689" y2="2331.5964">
						<stop  offset="0" style="stop-color:#4F52FF"/>
						<stop  offset="1" style="stop-color:#4042E2"/>
					</linearGradient>
					<path style="fill:url(#SVGID_00000000182749012951035550000009894431795244264625_);" d="M1840.428,2416.663
						c0-2.432-1.971-4.403-4.402-4.403h-41.611c-2.431,0-4.402,1.971-4.402,4.403v41.61c0,2.431,1.971,4.403,4.402,4.403h41.611
						c2.431,0,4.402-1.971,4.402-4.403V2416.663z"/>
					
						<linearGradient id="SVGID_00000006669165698710535410000007640637940917367951_" gradientUnits="userSpaceOnUse" x1="1910.7217" y1="2608.208" x2="1870.3511" y2="2331.5964">
						<stop  offset="0" style="stop-color:#4F52FF"/>
						<stop  offset="1" style="stop-color:#4042E2"/>
					</linearGradient>
					<path style="fill:url(#SVGID_00000006669165698710535410000007640637940917367951_);" d="M1911.011,2416.663
						c0-2.432-1.971-4.403-4.402-4.403h-41.611c-2.431,0-4.402,1.971-4.402,4.403v41.61c0,2.431,1.971,4.403,4.402,4.403h41.611
						c2.431,0,4.402-1.971,4.402-4.403V2416.663z"/>
					
						<linearGradient id="SVGID_00000057106971817854266230000001018754987357119145_" gradientUnits="userSpaceOnUse" x1="1981.3038" y1="2608.208" x2="1940.9333" y2="2331.5964">
						<stop  offset="0" style="stop-color:#4F52FF"/>
						<stop  offset="1" style="stop-color:#4042E2"/>
					</linearGradient>
					<path style="fill:url(#SVGID_00000057106971817854266230000001018754987357119145_);" d="M1981.593,2416.663
						c0-2.432-1.971-4.403-4.402-4.403h-41.611c-2.431,0-4.402,1.971-4.402,4.403v41.61c0,2.431,1.971,4.403,4.402,4.403h41.611
						c2.431,0,4.402-1.971,4.402-4.403V2416.663z"/>
				</g>
				<g>
					
						<linearGradient id="SVGID_00000069372153341592349750000004816875354543672463_" gradientUnits="userSpaceOnUse" x1="1050.291" y1="2675.4292" x2="1009.9205" y2="2398.8174">
						<stop  offset="0" style="stop-color:#4F52FF"/>
						<stop  offset="1" style="stop-color:#4042E2"/>
					</linearGradient>
					<path style="fill:url(#SVGID_00000069372153341592349750000004816875354543672463_);" d="M1050.58,2483.884
						c0-2.432-1.971-4.403-4.402-4.403h-41.611c-2.431,0-4.402,1.971-4.402,4.403v41.61c0,2.431,1.971,4.403,4.402,4.403h41.611
						c2.431,0,4.402-1.971,4.402-4.403V2483.884z"/>
					
						<linearGradient id="SVGID_00000093157432163647025010000014790229327704619179_" gradientUnits="userSpaceOnUse" x1="1120.8733" y1="2675.4292" x2="1080.5027" y2="2398.8174">
						<stop  offset="0" style="stop-color:#4F52FF"/>
						<stop  offset="1" style="stop-color:#4042E2"/>
					</linearGradient>
					<path style="fill:url(#SVGID_00000093157432163647025010000014790229327704619179_);" d="M1121.162,2483.884
						c0-2.432-1.971-4.403-4.403-4.403h-41.611c-2.431,0-4.402,1.971-4.402,4.403v41.61c0,2.431,1.971,4.403,4.402,4.403h41.611
						c2.431,0,4.403-1.971,4.403-4.403V2483.884z"/>
					
						<linearGradient id="SVGID_00000122682032424483324370000002939256532518215853_" gradientUnits="userSpaceOnUse" x1="1194.8165" y1="2675.4292" x2="1154.446" y2="2398.8174">
						<stop  offset="0" style="stop-color:#4F52FF"/>
						<stop  offset="1" style="stop-color:#4042E2"/>
					</linearGradient>
					<path style="fill:url(#SVGID_00000122682032424483324370000002939256532518215853_);" d="M1195.105,2483.884
						c0-2.432-1.971-4.403-4.402-4.403h-41.611c-2.431,0-4.402,1.971-4.402,4.403v41.61c0,2.431,1.971,4.403,4.402,4.403h41.611
						c2.431,0,4.402-1.971,4.402-4.403V2483.884z"/>
					
						<linearGradient id="SVGID_00000134214238409565117220000008119220655980977596_" gradientUnits="userSpaceOnUse" x1="1265.3987" y1="2675.4292" x2="1225.0281" y2="2398.8174">
						<stop  offset="0" style="stop-color:#4F52FF"/>
						<stop  offset="1" style="stop-color:#4042E2"/>
					</linearGradient>
					<path style="fill:url(#SVGID_00000134214238409565117220000008119220655980977596_);" d="M1265.688,2483.884
						c0-2.432-1.971-4.403-4.402-4.403h-41.611c-2.431,0-4.402,1.971-4.402,4.403v41.61c0,2.431,1.971,4.403,4.402,4.403h41.611
						c2.431,0,4.402-1.971,4.402-4.403V2483.884z"/>
					
						<linearGradient id="SVGID_00000059300278687329654350000003180454066715625858_" gradientUnits="userSpaceOnUse" x1="1335.9808" y1="2675.4292" x2="1295.6104" y2="2398.8174">
						<stop  offset="0" style="stop-color:#4F52FF"/>
						<stop  offset="1" style="stop-color:#4042E2"/>
					</linearGradient>
					<path style="fill:url(#SVGID_00000059300278687329654350000003180454066715625858_);" d="M1336.27,2483.884
						c0-2.432-1.971-4.403-4.402-4.403h-41.611c-2.431,0-4.402,1.971-4.402,4.403v41.61c0,2.431,1.971,4.403,4.402,4.403h41.611
						c2.431,0,4.402-1.971,4.402-4.403V2483.884z"/>
					
						<linearGradient id="SVGID_00000119838010192976320260000015568996547698748582_" gradientUnits="userSpaceOnUse" x1="1409.9241" y1="2675.4292" x2="1369.5536" y2="2398.8174">
						<stop  offset="0" style="stop-color:#4F52FF"/>
						<stop  offset="1" style="stop-color:#4042E2"/>
					</linearGradient>
					<path style="fill:url(#SVGID_00000119838010192976320260000015568996547698748582_);" d="M1410.213,2483.884
						c0-2.432-1.971-4.403-4.402-4.403H1364.2c-2.431,0-4.402,1.971-4.402,4.403v41.61c0,2.431,1.971,4.403,4.402,4.403h41.611
						c2.431,0,4.402-1.971,4.402-4.403V2483.884z"/>
					
						<linearGradient id="SVGID_00000111190983489776036340000008620171302136179080_" gradientUnits="userSpaceOnUse" x1="1480.5063" y1="2675.4292" x2="1440.1357" y2="2398.8174">
						<stop  offset="0" style="stop-color:#4F52FF"/>
						<stop  offset="1" style="stop-color:#4042E2"/>
					</linearGradient>
					<path style="fill:url(#SVGID_00000111190983489776036340000008620171302136179080_);" d="M1480.795,2483.884
						c0-2.432-1.971-4.403-4.402-4.403h-41.611c-2.431,0-4.402,1.971-4.402,4.403v41.61c0,2.431,1.971,4.403,4.402,4.403h41.611
						c2.431,0,4.402-1.971,4.402-4.403V2483.884z"/>
					
						<linearGradient id="SVGID_00000060712862038856997580000017957752131413110920_" gradientUnits="userSpaceOnUse" x1="1551.0885" y1="2675.4292" x2="1510.718" y2="2398.8174">
						<stop  offset="0" style="stop-color:#4F52FF"/>
						<stop  offset="1" style="stop-color:#4042E2"/>
					</linearGradient>
					<path style="fill:url(#SVGID_00000060712862038856997580000017957752131413110920_);" d="M1551.377,2483.884
						c0-2.432-1.971-4.403-4.402-4.403h-41.611c-2.431,0-4.402,1.971-4.402,4.403v41.61c0,2.431,1.971,4.403,4.402,4.403h41.611
						c2.431,0,4.402-1.971,4.402-4.403V2483.884z"/>
					
						<linearGradient id="SVGID_00000094597548031346771440000000842333511540369342_" gradientUnits="userSpaceOnUse" x1="1625.0317" y1="2675.429" x2="1584.6613" y2="2398.8176">
						<stop  offset="0" style="stop-color:#4F52FF"/>
						<stop  offset="1" style="stop-color:#4042E2"/>
					</linearGradient>
					<path style="fill:url(#SVGID_00000094597548031346771440000000842333511540369342_);" d="M1625.321,2483.884
						c0-2.432-1.971-4.403-4.402-4.403h-41.611c-2.431,0-4.402,1.971-4.402,4.403v41.61c0,2.431,1.971,4.403,4.402,4.403h41.611
						c2.431,0,4.402-1.971,4.402-4.403V2483.884z"/>
					
						<linearGradient id="SVGID_00000097487962475843482770000003230849376707228293_" gradientUnits="userSpaceOnUse" x1="1695.614" y1="2675.429" x2="1655.2434" y2="2398.8176">
						<stop  offset="0" style="stop-color:#4F52FF"/>
						<stop  offset="1" style="stop-color:#4042E2"/>
					</linearGradient>
					<path style="fill:url(#SVGID_00000097487962475843482770000003230849376707228293_);" d="M1695.903,2483.884
						c0-2.432-1.971-4.403-4.402-4.403h-41.611c-2.431,0-4.403,1.971-4.403,4.403v41.61c0,2.431,1.971,4.403,4.403,4.403h41.611
						c2.431,0,4.402-1.971,4.402-4.403V2483.884z"/>
					
						<linearGradient id="SVGID_00000067945381106368471670000017325469190934975898_" gradientUnits="userSpaceOnUse" x1="1766.1962" y1="2675.429" x2="1725.8257" y2="2398.8176">
						<stop  offset="0" style="stop-color:#4F52FF"/>
						<stop  offset="1" style="stop-color:#4042E2"/>
					</linearGradient>
					<path style="fill:url(#SVGID_00000067945381106368471670000017325469190934975898_);" d="M1766.485,2483.884
						c0-2.432-1.971-4.403-4.403-4.403h-41.611c-2.431,0-4.402,1.971-4.402,4.403v41.61c0,2.431,1.971,4.403,4.402,4.403h41.611
						c2.432,0,4.403-1.971,4.403-4.403V2483.884z"/>
					
						<linearGradient id="SVGID_00000084520059881324848410000001111057054685464738_" gradientUnits="userSpaceOnUse" x1="1840.1394" y1="2675.4292" x2="1799.7689" y2="2398.8174">
						<stop  offset="0" style="stop-color:#4F52FF"/>
						<stop  offset="1" style="stop-color:#4042E2"/>
					</linearGradient>
					<path style="fill:url(#SVGID_00000084520059881324848410000001111057054685464738_);" d="M1840.428,2483.884
						c0-2.432-1.971-4.403-4.402-4.403h-41.611c-2.431,0-4.402,1.971-4.402,4.403v41.61c0,2.431,1.971,4.403,4.402,4.403h41.611
						c2.431,0,4.402-1.971,4.402-4.403V2483.884z"/>
					
						<linearGradient id="SVGID_00000045582849294250752450000002295632619108033713_" gradientUnits="userSpaceOnUse" x1="1910.7216" y1="2675.4292" x2="1870.3511" y2="2398.8174">
						<stop  offset="0" style="stop-color:#4F52FF"/>
						<stop  offset="1" style="stop-color:#4042E2"/>
					</linearGradient>
					<path style="fill:url(#SVGID_00000045582849294250752450000002295632619108033713_);" d="M1911.011,2483.884
						c0-2.432-1.971-4.403-4.402-4.403h-41.611c-2.431,0-4.402,1.971-4.402,4.403v41.61c0,2.431,1.971,4.403,4.402,4.403h41.611
						c2.431,0,4.402-1.971,4.402-4.403V2483.884z"/>
					
						<linearGradient id="SVGID_00000168094734409622022890000014251204709774416540_" gradientUnits="userSpaceOnUse" x1="1981.3038" y1="2675.4292" x2="1940.9332" y2="2398.8174">
						<stop  offset="0" style="stop-color:#4F52FF"/>
						<stop  offset="1" style="stop-color:#4042E2"/>
					</linearGradient>
					<path style="fill:url(#SVGID_00000168094734409622022890000014251204709774416540_);" d="M1981.593,2483.884
						c0-2.432-1.971-4.403-4.402-4.403h-41.611c-2.431,0-4.402,1.971-4.402,4.403v41.61c0,2.431,1.971,4.403,4.402,4.403h41.611
						c2.431,0,4.402-1.971,4.402-4.403V2483.884z"/>
				</g>
				<g>
					
						<linearGradient id="SVGID_00000183967204558664894870000016213266641939733889_" gradientUnits="userSpaceOnUse" x1="1050.291" y1="2742.6499" x2="1009.9206" y2="2466.0388">
						<stop  offset="0" style="stop-color:#4F52FF"/>
						<stop  offset="1" style="stop-color:#4042E2"/>
					</linearGradient>
					<path style="fill:url(#SVGID_00000183967204558664894870000016213266641939733889_);" d="M1050.58,2551.105
						c0-2.432-1.971-4.403-4.402-4.403h-41.611c-2.431,0-4.402,1.971-4.402,4.403v41.61c0,2.432,1.971,4.403,4.402,4.403h41.611
						c2.431,0,4.402-1.971,4.402-4.403V2551.105z"/>
					
						<linearGradient id="SVGID_00000131355967298492509100000001986533821561896320_" gradientUnits="userSpaceOnUse" x1="1120.8732" y1="2742.6499" x2="1080.5028" y2="2466.0388">
						<stop  offset="0" style="stop-color:#4F52FF"/>
						<stop  offset="1" style="stop-color:#4042E2"/>
					</linearGradient>
					<path style="fill:url(#SVGID_00000131355967298492509100000001986533821561896320_);" d="M1121.162,2551.105
						c0-2.432-1.971-4.403-4.403-4.403h-41.611c-2.431,0-4.402,1.971-4.402,4.403v41.61c0,2.432,1.971,4.403,4.402,4.403h41.611
						c2.431,0,4.403-1.971,4.403-4.403V2551.105z"/>
					
						<linearGradient id="SVGID_00000159443370759804116670000006452412043149428389_" gradientUnits="userSpaceOnUse" x1="1194.8165" y1="2742.6499" x2="1154.446" y2="2466.0388">
						<stop  offset="0" style="stop-color:#4F52FF"/>
						<stop  offset="1" style="stop-color:#4042E2"/>
					</linearGradient>
					<path style="fill:url(#SVGID_00000159443370759804116670000006452412043149428389_);" d="M1195.105,2551.105
						c0-2.432-1.971-4.403-4.402-4.403h-41.611c-2.431,0-4.402,1.971-4.402,4.403v41.61c0,2.432,1.971,4.403,4.402,4.403h41.611
						c2.431,0,4.402-1.971,4.402-4.403V2551.105z"/>
					
						<linearGradient id="SVGID_00000116929959573631752450000010817089770956508859_" gradientUnits="userSpaceOnUse" x1="1265.3987" y1="2742.6499" x2="1225.0282" y2="2466.0388">
						<stop  offset="0" style="stop-color:#4F52FF"/>
						<stop  offset="1" style="stop-color:#4042E2"/>
					</linearGradient>
					<path style="fill:url(#SVGID_00000116929959573631752450000010817089770956508859_);" d="M1265.688,2551.105
						c0-2.432-1.971-4.403-4.402-4.403h-41.611c-2.431,0-4.402,1.971-4.402,4.403v41.61c0,2.432,1.971,4.403,4.402,4.403h41.611
						c2.431,0,4.402-1.971,4.402-4.403V2551.105z"/>
					
						<linearGradient id="SVGID_00000027583158282918989230000012144880835183467925_" gradientUnits="userSpaceOnUse" x1="1335.9808" y1="2742.6499" x2="1295.6104" y2="2466.0388">
						<stop  offset="0" style="stop-color:#4F52FF"/>
						<stop  offset="1" style="stop-color:#4042E2"/>
					</linearGradient>
					<path style="fill:url(#SVGID_00000027583158282918989230000012144880835183467925_);" d="M1336.27,2551.105
						c0-2.432-1.971-4.403-4.402-4.403h-41.611c-2.431,0-4.402,1.971-4.402,4.403v41.61c0,2.432,1.971,4.403,4.402,4.403h41.611
						c2.431,0,4.402-1.971,4.402-4.403V2551.105z"/>
					
						<linearGradient id="SVGID_00000168098754751904577290000010968054262645560205_" gradientUnits="userSpaceOnUse" x1="1409.9241" y1="2742.6499" x2="1369.5536" y2="2466.0388">
						<stop  offset="0" style="stop-color:#4F52FF"/>
						<stop  offset="1" style="stop-color:#4042E2"/>
					</linearGradient>
					<path style="fill:url(#SVGID_00000168098754751904577290000010968054262645560205_);" d="M1410.213,2551.105
						c0-2.432-1.971-4.403-4.402-4.403H1364.2c-2.431,0-4.402,1.971-4.402,4.403v41.61c0,2.432,1.971,4.403,4.402,4.403h41.611
						c2.431,0,4.402-1.971,4.402-4.403V2551.105z"/>
					
						<linearGradient id="SVGID_00000097466565030229667420000017400158842441963179_" gradientUnits="userSpaceOnUse" x1="1480.5062" y1="2742.6499" x2="1440.1359" y2="2466.0388">
						<stop  offset="0" style="stop-color:#4F52FF"/>
						<stop  offset="1" style="stop-color:#4042E2"/>
					</linearGradient>
					<path style="fill:url(#SVGID_00000097466565030229667420000017400158842441963179_);" d="M1480.795,2551.105
						c0-2.432-1.971-4.403-4.402-4.403h-41.611c-2.431,0-4.402,1.971-4.402,4.403v41.61c0,2.432,1.971,4.403,4.402,4.403h41.611
						c2.431,0,4.402-1.971,4.402-4.403V2551.105z"/>
					
						<linearGradient id="SVGID_00000059997248954499232500000017174918859037937833_" gradientUnits="userSpaceOnUse" x1="1551.0885" y1="2742.6499" x2="1510.718" y2="2466.0388">
						<stop  offset="0" style="stop-color:#4F52FF"/>
						<stop  offset="1" style="stop-color:#4042E2"/>
					</linearGradient>
					<path style="fill:url(#SVGID_00000059997248954499232500000017174918859037937833_);" d="M1551.377,2551.105
						c0-2.432-1.971-4.403-4.402-4.403h-41.611c-2.431,0-4.402,1.971-4.402,4.403v41.61c0,2.432,1.971,4.403,4.402,4.403h41.611
						c2.431,0,4.402-1.971,4.402-4.403V2551.105z"/>
					
						<linearGradient id="SVGID_00000146485751374090098530000002080857515084836231_" gradientUnits="userSpaceOnUse" x1="1625.0317" y1="2742.6499" x2="1584.6613" y2="2466.0388">
						<stop  offset="0" style="stop-color:#4F52FF"/>
						<stop  offset="1" style="stop-color:#4042E2"/>
					</linearGradient>
					<path style="fill:url(#SVGID_00000146485751374090098530000002080857515084836231_);" d="M1625.321,2551.105
						c0-2.432-1.971-4.403-4.402-4.403h-41.611c-2.431,0-4.402,1.971-4.402,4.403v41.61c0,2.432,1.971,4.403,4.402,4.403h41.611
						c2.431,0,4.402-1.971,4.402-4.403V2551.105z"/>
					
						<linearGradient id="SVGID_00000028297713235988381180000011993872141904266642_" gradientUnits="userSpaceOnUse" x1="1695.6139" y1="2742.6499" x2="1655.2435" y2="2466.0388">
						<stop  offset="0" style="stop-color:#4F52FF"/>
						<stop  offset="1" style="stop-color:#4042E2"/>
					</linearGradient>
					<path style="fill:url(#SVGID_00000028297713235988381180000011993872141904266642_);" d="M1695.903,2551.105
						c0-2.432-1.971-4.403-4.402-4.403h-41.611c-2.431,0-4.403,1.971-4.403,4.403v41.61c0,2.432,1.971,4.403,4.403,4.403h41.611
						c2.431,0,4.402-1.971,4.402-4.403V2551.105z"/>
					
						<linearGradient id="SVGID_00000114774712868601422310000000581772774370957739_" gradientUnits="userSpaceOnUse" x1="1766.1962" y1="2742.6499" x2="1725.8257" y2="2466.0388">
						<stop  offset="0" style="stop-color:#4F52FF"/>
						<stop  offset="1" style="stop-color:#4042E2"/>
					</linearGradient>
					<path style="fill:url(#SVGID_00000114774712868601422310000000581772774370957739_);" d="M1766.485,2551.105
						c0-2.432-1.971-4.403-4.403-4.403h-41.611c-2.431,0-4.402,1.971-4.402,4.403v41.61c0,2.432,1.971,4.403,4.402,4.403h41.611
						c2.432,0,4.403-1.971,4.403-4.403V2551.105z"/>
					
						<linearGradient id="SVGID_00000092446811904302467770000003877543025604736159_" gradientUnits="userSpaceOnUse" x1="1840.1394" y1="2742.6499" x2="1799.7689" y2="2466.0388">
						<stop  offset="0" style="stop-color:#4F52FF"/>
						<stop  offset="1" style="stop-color:#4042E2"/>
					</linearGradient>
					<path style="fill:url(#SVGID_00000092446811904302467770000003877543025604736159_);" d="M1840.428,2551.105
						c0-2.432-1.971-4.403-4.402-4.403h-41.611c-2.431,0-4.402,1.971-4.402,4.403v41.61c0,2.432,1.971,4.403,4.402,4.403h41.611
						c2.431,0,4.402-1.971,4.402-4.403V2551.105z"/>
					
						<linearGradient id="SVGID_00000039135461827354773730000000662448920598816407_" gradientUnits="userSpaceOnUse" x1="1910.7216" y1="2742.6499" x2="1870.3511" y2="2466.0388">
						<stop  offset="0" style="stop-color:#4F52FF"/>
						<stop  offset="1" style="stop-color:#4042E2"/>
					</linearGradient>
					<path style="fill:url(#SVGID_00000039135461827354773730000000662448920598816407_);" d="M1911.011,2551.105
						c0-2.432-1.971-4.403-4.402-4.403h-41.611c-2.431,0-4.402,1.971-4.402,4.403v41.61c0,2.432,1.971,4.403,4.402,4.403h41.611
						c2.431,0,4.402-1.971,4.402-4.403V2551.105z"/>
					
						<linearGradient id="SVGID_00000093886678671736498140000017448983070379173051_" gradientUnits="userSpaceOnUse" x1="1981.3038" y1="2742.6499" x2="1940.9333" y2="2466.0388">
						<stop  offset="0" style="stop-color:#4F52FF"/>
						<stop  offset="1" style="stop-color:#4042E2"/>
					</linearGradient>
					<path style="fill:url(#SVGID_00000093886678671736498140000017448983070379173051_);" d="M1981.593,2551.105
						c0-2.432-1.971-4.403-4.402-4.403h-41.611c-2.431,0-4.402,1.971-4.402,4.403v41.61c0,2.432,1.971,4.403,4.402,4.403h41.611
						c2.431,0,4.402-1.971,4.402-4.403V2551.105z"/>
				</g>
				<g>
					
						<linearGradient id="SVGID_00000145744684807690429110000004031941471901673116_" gradientUnits="userSpaceOnUse" x1="1050.291" y1="2809.8713" x2="1009.9205" y2="2533.2598">
						<stop  offset="0" style="stop-color:#4F52FF"/>
						<stop  offset="1" style="stop-color:#4042E2"/>
					</linearGradient>
					<path style="fill:url(#SVGID_00000145744684807690429110000004031941471901673116_);" d="M1050.58,2618.326
						c0-2.432-1.971-4.403-4.402-4.403h-41.611c-2.431,0-4.402,1.971-4.402,4.403v41.61c0,2.432,1.971,4.403,4.402,4.403h41.611
						c2.431,0,4.402-1.971,4.402-4.403V2618.326z"/>
					
						<linearGradient id="SVGID_00000163043948551253258550000012134443200538411675_" gradientUnits="userSpaceOnUse" x1="1120.8733" y1="2809.8713" x2="1080.5027" y2="2533.2598">
						<stop  offset="0" style="stop-color:#4F52FF"/>
						<stop  offset="1" style="stop-color:#4042E2"/>
					</linearGradient>
					<path style="fill:url(#SVGID_00000163043948551253258550000012134443200538411675_);" d="M1121.162,2618.326
						c0-2.432-1.971-4.403-4.403-4.403h-41.611c-2.431,0-4.402,1.971-4.402,4.403v41.61c0,2.432,1.971,4.403,4.402,4.403h41.611
						c2.431,0,4.403-1.971,4.403-4.403V2618.326z"/>
					
						<linearGradient id="SVGID_00000082359458728446574450000003692268568735551674_" gradientUnits="userSpaceOnUse" x1="1194.8165" y1="2809.8713" x2="1154.446" y2="2533.2598">
						<stop  offset="0" style="stop-color:#4F52FF"/>
						<stop  offset="1" style="stop-color:#4042E2"/>
					</linearGradient>
					<path style="fill:url(#SVGID_00000082359458728446574450000003692268568735551674_);" d="M1195.105,2618.326
						c0-2.432-1.971-4.403-4.402-4.403h-41.611c-2.431,0-4.402,1.971-4.402,4.403v41.61c0,2.432,1.971,4.403,4.402,4.403h41.611
						c2.431,0,4.402-1.971,4.402-4.403V2618.326z"/>
					
						<linearGradient id="SVGID_00000165224342145328087340000014524200497762385828_" gradientUnits="userSpaceOnUse" x1="1265.3987" y1="2809.8713" x2="1225.0282" y2="2533.2598">
						<stop  offset="0" style="stop-color:#4F52FF"/>
						<stop  offset="1" style="stop-color:#4042E2"/>
					</linearGradient>
					<path style="fill:url(#SVGID_00000165224342145328087340000014524200497762385828_);" d="M1265.688,2618.326
						c0-2.432-1.971-4.403-4.402-4.403h-41.611c-2.431,0-4.402,1.971-4.402,4.403v41.61c0,2.432,1.971,4.403,4.402,4.403h41.611
						c2.431,0,4.402-1.971,4.402-4.403V2618.326z"/>
					
						<linearGradient id="SVGID_00000082336389372414992490000010906974002377397648_" gradientUnits="userSpaceOnUse" x1="1335.9808" y1="2809.8713" x2="1295.6104" y2="2533.2598">
						<stop  offset="0" style="stop-color:#4F52FF"/>
						<stop  offset="1" style="stop-color:#4042E2"/>
					</linearGradient>
					<path style="fill:url(#SVGID_00000082336389372414992490000010906974002377397648_);" d="M1336.27,2618.326
						c0-2.432-1.971-4.403-4.402-4.403h-41.611c-2.431,0-4.402,1.971-4.402,4.403v41.61c0,2.432,1.971,4.403,4.402,4.403h41.611
						c2.431,0,4.402-1.971,4.402-4.403V2618.326z"/>
					
						<linearGradient id="SVGID_00000093883903406620962630000012285041174789077163_" gradientUnits="userSpaceOnUse" x1="1409.9241" y1="2809.8713" x2="1369.5536" y2="2533.2598">
						<stop  offset="0" style="stop-color:#4F52FF"/>
						<stop  offset="1" style="stop-color:#4042E2"/>
					</linearGradient>
					<path style="fill:url(#SVGID_00000093883903406620962630000012285041174789077163_);" d="M1410.213,2618.326
						c0-2.432-1.971-4.403-4.402-4.403H1364.2c-2.431,0-4.402,1.971-4.402,4.403v41.61c0,2.432,1.971,4.403,4.402,4.403h41.611
						c2.431,0,4.402-1.971,4.402-4.403V2618.326z"/>
					
						<linearGradient id="SVGID_00000057113013435159148220000014981886899728468618_" gradientUnits="userSpaceOnUse" x1="1480.5063" y1="2809.8713" x2="1440.1357" y2="2533.2598">
						<stop  offset="0" style="stop-color:#4F52FF"/>
						<stop  offset="1" style="stop-color:#4042E2"/>
					</linearGradient>
					<path style="fill:url(#SVGID_00000057113013435159148220000014981886899728468618_);" d="M1480.795,2618.326
						c0-2.432-1.971-4.403-4.402-4.403h-41.611c-2.431,0-4.402,1.971-4.402,4.403v41.61c0,2.432,1.971,4.403,4.402,4.403h41.611
						c2.431,0,4.402-1.971,4.402-4.403V2618.326z"/>
					
						<linearGradient id="SVGID_00000004518363309782186450000012364748360306752944_" gradientUnits="userSpaceOnUse" x1="1551.0885" y1="2809.8713" x2="1510.718" y2="2533.2598">
						<stop  offset="0" style="stop-color:#4F52FF"/>
						<stop  offset="1" style="stop-color:#4042E2"/>
					</linearGradient>
					<path style="fill:url(#SVGID_00000004518363309782186450000012364748360306752944_);" d="M1551.377,2618.326
						c0-2.432-1.971-4.403-4.402-4.403h-41.611c-2.431,0-4.402,1.971-4.402,4.403v41.61c0,2.432,1.971,4.403,4.402,4.403h41.611
						c2.431,0,4.402-1.971,4.402-4.403V2618.326z"/>
					
						<linearGradient id="SVGID_00000022552471805136663200000009470200094676384905_" gradientUnits="userSpaceOnUse" x1="1625.0317" y1="2809.8713" x2="1584.6613" y2="2533.2598">
						<stop  offset="0" style="stop-color:#4F52FF"/>
						<stop  offset="1" style="stop-color:#4042E2"/>
					</linearGradient>
					<path style="fill:url(#SVGID_00000022552471805136663200000009470200094676384905_);" d="M1625.321,2618.326
						c0-2.432-1.971-4.403-4.402-4.403h-41.611c-2.431,0-4.402,1.971-4.402,4.403v41.61c0,2.432,1.971,4.403,4.402,4.403h41.611
						c2.431,0,4.402-1.971,4.402-4.403V2618.326z"/>
					
						<linearGradient id="SVGID_00000029035874219765881360000010479438501666160300_" gradientUnits="userSpaceOnUse" x1="1695.614" y1="2809.8713" x2="1655.2434" y2="2533.2598">
						<stop  offset="0" style="stop-color:#4F52FF"/>
						<stop  offset="1" style="stop-color:#4042E2"/>
					</linearGradient>
					<path style="fill:url(#SVGID_00000029035874219765881360000010479438501666160300_);" d="M1695.903,2618.326
						c0-2.432-1.971-4.403-4.402-4.403h-41.611c-2.431,0-4.403,1.971-4.403,4.403v41.61c0,2.432,1.971,4.403,4.403,4.403h41.611
						c2.431,0,4.402-1.971,4.402-4.403V2618.326z"/>
					
						<linearGradient id="SVGID_00000061458323459058208170000011579333401373190540_" gradientUnits="userSpaceOnUse" x1="1766.1962" y1="2809.8713" x2="1725.8257" y2="2533.2598">
						<stop  offset="0" style="stop-color:#4F52FF"/>
						<stop  offset="1" style="stop-color:#4042E2"/>
					</linearGradient>
					<path style="fill:url(#SVGID_00000061458323459058208170000011579333401373190540_);" d="M1766.485,2618.326
						c0-2.432-1.971-4.403-4.403-4.403h-41.611c-2.431,0-4.402,1.971-4.402,4.403v41.61c0,2.432,1.971,4.403,4.402,4.403h41.611
						c2.432,0,4.403-1.971,4.403-4.403V2618.326z"/>
					
						<linearGradient id="SVGID_00000160165392185124109690000008446469911133432236_" gradientUnits="userSpaceOnUse" x1="1840.1394" y1="2809.8713" x2="1799.7689" y2="2533.2598">
						<stop  offset="0" style="stop-color:#4F52FF"/>
						<stop  offset="1" style="stop-color:#4042E2"/>
					</linearGradient>
					<path style="fill:url(#SVGID_00000160165392185124109690000008446469911133432236_);" d="M1840.428,2618.326
						c0-2.432-1.971-4.403-4.402-4.403h-41.611c-2.431,0-4.402,1.971-4.402,4.403v41.61c0,2.432,1.971,4.403,4.402,4.403h41.611
						c2.431,0,4.402-1.971,4.402-4.403V2618.326z"/>
					
						<linearGradient id="SVGID_00000159462966255144381900000006315973709412640128_" gradientUnits="userSpaceOnUse" x1="1910.7217" y1="2809.8713" x2="1870.3511" y2="2533.2598">
						<stop  offset="0" style="stop-color:#4F52FF"/>
						<stop  offset="1" style="stop-color:#4042E2"/>
					</linearGradient>
					<path style="fill:url(#SVGID_00000159462966255144381900000006315973709412640128_);" d="M1911.011,2618.326
						c0-2.432-1.971-4.403-4.402-4.403h-41.611c-2.431,0-4.402,1.971-4.402,4.403v41.61c0,2.432,1.971,4.403,4.402,4.403h41.611
						c2.431,0,4.402-1.971,4.402-4.403V2618.326z"/>
					
						<linearGradient id="SVGID_00000084525272146135308160000002300411393689468844_" gradientUnits="userSpaceOnUse" x1="1981.3038" y1="2809.8713" x2="1940.9333" y2="2533.2598">
						<stop  offset="0" style="stop-color:#4F52FF"/>
						<stop  offset="1" style="stop-color:#4042E2"/>
					</linearGradient>
					<path style="fill:url(#SVGID_00000084525272146135308160000002300411393689468844_);" d="M1981.593,2618.326
						c0-2.432-1.971-4.403-4.402-4.403h-41.611c-2.431,0-4.402,1.971-4.402,4.403v41.61c0,2.432,1.971,4.403,4.402,4.403h41.611
						c2.431,0,4.402-1.971,4.402-4.403V2618.326z"/>
				</g>
				<g>
					
						<linearGradient id="SVGID_00000169553113755445432400000016430198630765408427_" gradientUnits="userSpaceOnUse" x1="1050.291" y1="2880.4536" x2="1009.9205" y2="2603.842">
						<stop  offset="0" style="stop-color:#4F52FF"/>
						<stop  offset="1" style="stop-color:#4042E2"/>
					</linearGradient>
					<path style="fill:url(#SVGID_00000169553113755445432400000016430198630765408427_);" d="M1050.58,2688.908
						c0-2.432-1.971-4.403-4.402-4.403h-41.611c-2.431,0-4.402,1.971-4.402,4.403v41.61c0,2.432,1.971,4.403,4.402,4.403h41.611
						c2.431,0,4.402-1.971,4.402-4.403V2688.908z"/>
					
						<linearGradient id="SVGID_00000157282583933283653880000014402003465983988153_" gradientUnits="userSpaceOnUse" x1="1120.8733" y1="2880.4536" x2="1080.5027" y2="2603.842">
						<stop  offset="0" style="stop-color:#4F52FF"/>
						<stop  offset="1" style="stop-color:#4042E2"/>
					</linearGradient>
					<path style="fill:url(#SVGID_00000157282583933283653880000014402003465983988153_);" d="M1121.162,2688.908
						c0-2.432-1.971-4.403-4.403-4.403h-41.611c-2.431,0-4.402,1.971-4.402,4.403v41.61c0,2.432,1.971,4.403,4.402,4.403h41.611
						c2.431,0,4.403-1.971,4.403-4.403V2688.908z"/>
					
						<linearGradient id="SVGID_00000109739878003216732940000004216452598762747819_" gradientUnits="userSpaceOnUse" x1="1194.8165" y1="2880.4536" x2="1154.446" y2="2603.842">
						<stop  offset="0" style="stop-color:#4F52FF"/>
						<stop  offset="1" style="stop-color:#4042E2"/>
					</linearGradient>
					<path style="fill:url(#SVGID_00000109739878003216732940000004216452598762747819_);" d="M1195.105,2688.908
						c0-2.432-1.971-4.403-4.402-4.403h-41.611c-2.431,0-4.402,1.971-4.402,4.403v41.61c0,2.432,1.971,4.403,4.402,4.403h41.611
						c2.431,0,4.402-1.971,4.402-4.403V2688.908z"/>
					
						<linearGradient id="SVGID_00000130635563649113948580000011559650323611268526_" gradientUnits="userSpaceOnUse" x1="1265.3987" y1="2880.4536" x2="1225.0282" y2="2603.842">
						<stop  offset="0" style="stop-color:#4F52FF"/>
						<stop  offset="1" style="stop-color:#4042E2"/>
					</linearGradient>
					<path style="fill:url(#SVGID_00000130635563649113948580000011559650323611268526_);" d="M1265.688,2688.908
						c0-2.432-1.971-4.403-4.402-4.403h-41.611c-2.431,0-4.402,1.971-4.402,4.403v41.61c0,2.432,1.971,4.403,4.402,4.403h41.611
						c2.431,0,4.402-1.971,4.402-4.403V2688.908z"/>
					
						<linearGradient id="SVGID_00000037688522152244527330000002462165873317798558_" gradientUnits="userSpaceOnUse" x1="1335.9808" y1="2880.4536" x2="1295.6104" y2="2603.842">
						<stop  offset="0" style="stop-color:#4F52FF"/>
						<stop  offset="1" style="stop-color:#4042E2"/>
					</linearGradient>
					<path style="fill:url(#SVGID_00000037688522152244527330000002462165873317798558_);" d="M1336.27,2688.908
						c0-2.432-1.971-4.403-4.402-4.403h-41.611c-2.431,0-4.402,1.971-4.402,4.403v41.61c0,2.432,1.971,4.403,4.402,4.403h41.611
						c2.431,0,4.402-1.971,4.402-4.403V2688.908z"/>
					
						<linearGradient id="SVGID_00000138570524896657352420000012787101106396222637_" gradientUnits="userSpaceOnUse" x1="1409.9241" y1="2880.4536" x2="1369.5536" y2="2603.842">
						<stop  offset="0" style="stop-color:#4F52FF"/>
						<stop  offset="1" style="stop-color:#4042E2"/>
					</linearGradient>
					<path style="fill:url(#SVGID_00000138570524896657352420000012787101106396222637_);" d="M1410.213,2688.908
						c0-2.432-1.971-4.403-4.402-4.403H1364.2c-2.431,0-4.402,1.971-4.402,4.403v41.61c0,2.432,1.971,4.403,4.402,4.403h41.611
						c2.431,0,4.402-1.971,4.402-4.403V2688.908z"/>
					
						<linearGradient id="SVGID_00000117671233192617303300000009687506051430915984_" gradientUnits="userSpaceOnUse" x1="1480.5063" y1="2880.4536" x2="1440.1357" y2="2603.842">
						<stop  offset="0" style="stop-color:#4F52FF"/>
						<stop  offset="1" style="stop-color:#4042E2"/>
					</linearGradient>
					<path style="fill:url(#SVGID_00000117671233192617303300000009687506051430915984_);" d="M1480.795,2688.908
						c0-2.432-1.971-4.403-4.402-4.403h-41.611c-2.431,0-4.402,1.971-4.402,4.403v41.61c0,2.432,1.971,4.403,4.402,4.403h41.611
						c2.431,0,4.402-1.971,4.402-4.403V2688.908z"/>
					
						<linearGradient id="SVGID_00000096019559671414522110000006352925567850288776_" gradientUnits="userSpaceOnUse" x1="1551.0885" y1="2880.4536" x2="1510.718" y2="2603.842">
						<stop  offset="0" style="stop-color:#4F52FF"/>
						<stop  offset="1" style="stop-color:#4042E2"/>
					</linearGradient>
					<path style="fill:url(#SVGID_00000096019559671414522110000006352925567850288776_);" d="M1551.377,2688.908
						c0-2.432-1.971-4.403-4.402-4.403h-41.611c-2.431,0-4.402,1.971-4.402,4.403v41.61c0,2.432,1.971,4.403,4.402,4.403h41.611
						c2.431,0,4.402-1.971,4.402-4.403V2688.908z"/>
					
						<linearGradient id="SVGID_00000065764262523330954260000000078937120689908104_" gradientUnits="userSpaceOnUse" x1="1625.0317" y1="2880.4536" x2="1584.6613" y2="2603.842">
						<stop  offset="0" style="stop-color:#4F52FF"/>
						<stop  offset="1" style="stop-color:#4042E2"/>
					</linearGradient>
					<path style="fill:url(#SVGID_00000065764262523330954260000000078937120689908104_);" d="M1625.321,2688.908
						c0-2.432-1.971-4.403-4.402-4.403h-41.611c-2.431,0-4.402,1.971-4.402,4.403v41.61c0,2.432,1.971,4.403,4.402,4.403h41.611
						c2.431,0,4.402-1.971,4.402-4.403V2688.908z"/>
					
						<linearGradient id="SVGID_00000166645025787633489830000009124360612865853630_" gradientUnits="userSpaceOnUse" x1="1695.614" y1="2880.4536" x2="1655.2434" y2="2603.842">
						<stop  offset="0" style="stop-color:#4F52FF"/>
						<stop  offset="1" style="stop-color:#4042E2"/>
					</linearGradient>
					<path style="fill:url(#SVGID_00000166645025787633489830000009124360612865853630_);" d="M1695.903,2688.908
						c0-2.432-1.971-4.403-4.402-4.403h-41.611c-2.431,0-4.403,1.971-4.403,4.403v41.61c0,2.432,1.971,4.403,4.403,4.403h41.611
						c2.431,0,4.402-1.971,4.402-4.403V2688.908z"/>
					
						<linearGradient id="SVGID_00000023973198611939477960000005010791673679733937_" gradientUnits="userSpaceOnUse" x1="1766.1962" y1="2880.4536" x2="1725.8257" y2="2603.842">
						<stop  offset="0" style="stop-color:#4F52FF"/>
						<stop  offset="1" style="stop-color:#4042E2"/>
					</linearGradient>
					<path style="fill:url(#SVGID_00000023973198611939477960000005010791673679733937_);" d="M1766.485,2688.908
						c0-2.432-1.971-4.403-4.403-4.403h-41.611c-2.431,0-4.402,1.971-4.402,4.403v41.61c0,2.432,1.971,4.403,4.402,4.403h41.611
						c2.432,0,4.403-1.971,4.403-4.403V2688.908z"/>
					
						<linearGradient id="SVGID_00000078754351186958490590000004067098842115894195_" gradientUnits="userSpaceOnUse" x1="1840.1394" y1="2880.4536" x2="1799.7689" y2="2603.842">
						<stop  offset="0" style="stop-color:#4F52FF"/>
						<stop  offset="1" style="stop-color:#4042E2"/>
					</linearGradient>
					<path style="fill:url(#SVGID_00000078754351186958490590000004067098842115894195_);" d="M1840.428,2688.908
						c0-2.432-1.971-4.403-4.402-4.403h-41.611c-2.431,0-4.402,1.971-4.402,4.403v41.61c0,2.432,1.971,4.403,4.402,4.403h41.611
						c2.431,0,4.402-1.971,4.402-4.403V2688.908z"/>
					
						<linearGradient id="SVGID_00000127042718714123844800000006032139385323637649_" gradientUnits="userSpaceOnUse" x1="1910.7217" y1="2880.4536" x2="1870.3511" y2="2603.842">
						<stop  offset="0" style="stop-color:#4F52FF"/>
						<stop  offset="1" style="stop-color:#4042E2"/>
					</linearGradient>
					<path style="fill:url(#SVGID_00000127042718714123844800000006032139385323637649_);" d="M1911.011,2688.908
						c0-2.432-1.971-4.403-4.402-4.403h-41.611c-2.431,0-4.402,1.971-4.402,4.403v41.61c0,2.432,1.971,4.403,4.402,4.403h41.611
						c2.431,0,4.402-1.971,4.402-4.403V2688.908z"/>
					
						<linearGradient id="SVGID_00000138543258140101568330000002749915454613160358_" gradientUnits="userSpaceOnUse" x1="1981.3038" y1="2880.4536" x2="1940.9333" y2="2603.842">
						<stop  offset="0" style="stop-color:#4F52FF"/>
						<stop  offset="1" style="stop-color:#4042E2"/>
					</linearGradient>
					<path style="fill:url(#SVGID_00000138543258140101568330000002749915454613160358_);" d="M1981.593,2688.908
						c0-2.432-1.971-4.403-4.402-4.403h-41.611c-2.431,0-4.402,1.971-4.402,4.403v41.61c0,2.432,1.971,4.403,4.402,4.403h41.611
						c2.431,0,4.402-1.971,4.402-4.403V2688.908z"/>
				</g>
			</g>
			<g>
				
					<linearGradient id="SVGID_00000178195097129210334820000002825277596576697502_" gradientUnits="userSpaceOnUse" x1="1128.3335" y1="3520.6809" x2="1694.8531" y2="1243.28">
					<stop  offset="0" style="stop-color:#4F52FF"/>
					<stop  offset="1" style="stop-color:#4042E2"/>
				</linearGradient>
				<path style="fill:url(#SVGID_00000178195097129210334820000002825277596576697502_);" d="M1755.277,1508.136h-518.933
					c-162.059,0-300.04,134.145-300.04,296.203v560.133c0,16.328,19.843,27.621,36.17,27.621h1046.673
					c16.327,0,22.945-11.294,22.945-27.621v-560.133C2042.092,1642.281,1917.336,1508.136,1755.277,1508.136z"/>
				
					<linearGradient id="SVGID_00000054978912740287394720000001459558790522751894_" gradientUnits="userSpaceOnUse" x1="1317.6152" y1="3567.8237" x2="1883.4204" y2="1293.2953">
					<stop  offset="0" style="stop-color:#4F52FF"/>
					<stop  offset="1" style="stop-color:#4042E2"/>
				</linearGradient>
				<path style="fill:url(#SVGID_00000054978912740287394720000001459558790522751894_);" d="M2019.16,2755.088H972.462
					c-16.304,0-36.158,14.505-36.158,30.809v141.225c0,39.779,11.229,77.67,25.57,112.278c7.699,18.682,18.974,35.523,30.221,52.016
					c52.837,77.481,143.405,127.497,244.248,127.497h518.933c100.843,0,189.76-50.016,242.597-127.497
					c11.247-16.493,17.562-33.745,25.261-52.426c14.341-34.608,18.957-72.089,18.957-111.868v-141.225
					C2042.092,2769.593,2035.464,2755.088,2019.16,2755.088z"/>
			</g>
			<path style="fill:#7D97F4;" d="M2026.444,3037.417c-7.699,20.166-17.323,36.971-28.57,53.777H993.747
				c-11.247-16.805-20.871-33.611-28.57-53.777H2026.444z"/>
			<path style="fill:#91B3FA;" d="M1806.818,1545.107h-635.24c-1.858,0-3.361-1.505-3.361-3.361c0-1.856,1.503-3.361,3.361-3.361
				h635.24c1.858,0,3.361,1.505,3.361,3.361C1810.179,1543.603,1808.676,1545.107,1806.818,1545.107z"/>
			<path style="fill:#91B3FA;" d="M1806.818,3171.859h-635.24c-1.858,0-3.361-1.505-3.361-3.361c0-1.856,1.503-3.361,3.361-3.361
				h635.24c1.858,0,3.361,1.505,3.361,3.361C1810.179,3170.354,1808.676,3171.859,1806.818,3171.859z"/>
			<g>
				<g>
					<g>
						<path style="fill:#BDD0FB;" d="M1544.655,2022.905c0,31.265-25.345,56.611-56.611,56.611h-1.054
							c-31.265,0-56.611-25.345-56.611-56.611v-155.663c0-31.265,25.346-56.611,56.611-56.611h1.054
							c31.265,0,56.611,25.346,56.611,56.611V2022.905z"/>
					</g>
					<g>
						<path style="fill:#BDD0FB;" d="M1598.24,2166.903h-100.64v-47.055h10.286h49.558c28.836,0,44.348-22.067,44.348-50.903
							v-138.268c0-6.351-5.412-11.5-11.764-11.5c-6.351,0-11.764,5.148-11.764,11.5v138.268c0,16.154-4.668,30.737-20.821,30.737
							h-49.558h-19.713h-52.844c-16.153,0-38.561-14.583-38.561-30.737v-134.983c0-6.351-5.412-11.5-11.764-11.5
							s-11.764,5.148-11.764,11.5v134.983c0,28.836,33.253,50.903,62.089,50.903h42.104v47.055h-82.9
							c-6.351,0-11.499,3.732-11.499,10.083s5.148,10.083,11.499,10.083h203.706c6.351,0,11.5-3.732,11.5-10.083
							S1604.592,2166.903,1598.24,2166.903z"/>
					</g>
				</g>
				<g style="opacity:0.4;">
					<g>
						<path style="fill:#BDD0FB;" d="M1492.98,2281.758c-154.515,0-280.224-125.708-280.224-280.224
							c0-154.515,125.709-280.224,280.224-280.224s280.224,125.709,280.224,280.224
							C1773.204,2156.049,1647.495,2281.758,1492.98,2281.758z M1492.98,1732.632c-148.274,0-268.902,120.628-268.902,268.902
							s120.628,268.902,268.902,268.902s268.902-120.628,268.902-268.902S1641.254,1732.632,1492.98,1732.632z"/>
					</g>
				</g>
			</g>
		</g>
		<g>
			<path style="fill:#91B3FA;" d="M2815.205,1663.193c0,0-586.89-513.923-300.387-700.914
				c286.503-186.991,672.382,21.028,624.336,285.354C3091.107,1511.959,2605.753,1317.673,2815.205,1663.193z"/>
			<g>
				<g>
					<path style="fill:#FFFFFF;" d="M2804.025,1327.953l-44.478-59.463c-1.31-1.751-3.278-2.89-5.449-3.155
						c-2.171-0.265-4.358,0.366-6.049,1.752c-2.226,1.825-4.925,3.941-7.896,6.082c-0.706,0.509-0.884,1.482-0.406,2.209
						l51.576,78.39c0.28,0.424,0.741,0.693,1.248,0.728c0.507,0.035,1.001-0.17,1.334-0.553c6.067-6.963,9.46-13.927,11.163-18.253
						C2806.084,1333.106,2805.688,1330.178,2804.025,1327.953z"/>
					<path style="fill:#FFFFFF;" d="M2665.256,1146.426c0.04,0.087,0.138,0.132,0.23,0.105c5.498-1.585,10.744-2.963,14.958-4.021
						c2.328-0.584,4.27-2.182,5.295-4.352c1.024-2.17,1.02-4.685-0.006-6.854l-36.262-76.637c-1.822-3.85-6.338-5.605-10.279-3.988
						c-3.633,1.492-8.435,3.604-13.834,6.321c-0.684,0.345-0.97,1.17-0.649,1.865L2665.256,1146.426z"/>
					<path style="fill:#FFFFFF;" d="M2730.928,1279.425c-0.056-0.086-0.171-0.113-0.26-0.061c-8.839,5.13-18.254,8.58-24.607,5.341
						c-15.292-7.795-83.049-121.366-66.063-129.247c4.136-1.92,9.225-3.804,14.551-5.561c0.384-0.127,0.696-0.413,0.858-0.785
						c0.161-0.372,0.155-0.795-0.015-1.163l-39.048-84.322c-0.168-0.364-0.483-0.64-0.866-0.759
						c-0.384-0.12-0.799-0.071-1.145,0.133c-23.329,13.746-50.417,36.877-47.547,69.235c4.959,55.906,76.44,230.017,151.271,242.504
						c31.917,5.326,52.704-1.792,66.048-11.707c0.69-0.513,0.862-1.476,0.388-2.195L2730.928,1279.425z"/>
				</g>
				<g>
					<g>
						<path style="fill:#FFFFFF;" d="M2780.879,1121.269c32.487,20.885,41.925,64.304,21.04,96.791
							c-1.294,2.013-2.681,3.93-4.146,5.757c-1.971,2.459-1.175,6.093,1.699,7.387l9.398,4.232c2.052,0.925,4.451,0.274,5.805-1.524
							c1.282-1.703,2.515-3.461,3.686-5.283c26.712-41.55,14.639-97.091-26.911-123.802c-3.148-2.024-6.38-3.812-9.672-5.387
							c-2.464-1.179-5.417-0.089-6.488,2.424l-3.94,9.245c-0.997,2.339,0.02,5.037,2.311,6.138
							C2776.116,1118.429,2778.529,1119.759,2780.879,1121.269z"/>
						<path style="fill:#FFFFFF;" d="M2808.185,1078.795c55.908,35.943,72.151,110.663,36.208,166.571
							c-0.01,0.016-0.02,0.032-0.03,0.048c-1.574,2.445-0.658,5.71,1.994,6.904l9.219,4.151c2.29-0.675,3.765-1.11,6.055-1.785
							c40.729-64.831,21.68-150.829-42.875-192.33c-5.635-3.623-11.441-6.762-17.364-9.471c-2.409-1.101-5.254,0.061-6.293,2.498
							l-3.93,9.222c-1,2.348,0.013,5.094,2.331,6.161C2798.508,1073.068,2803.417,1075.73,2808.185,1078.795z"/>
						<path style="fill:#FFFFFF;" d="M2835.49,1036.321c77.262,49.671,101.1,151.534,55.168,230.095
							c-1.442,2.467-0.49,5.631,2.115,6.804l9.147,4.12c2.22,1,4.872,0.179,6.09-1.93c50.512-87.423,23.862-200.363-61.951-255.531
							c-8.061-5.182-16.379-9.636-24.869-13.449c-2.42-1.086-5.266,0.074-6.306,2.514l-3.925,9.211
							c-1.023,2.402,0.091,5.141,2.471,6.214C2820.961,1027.764,2828.339,1031.724,2835.49,1036.321z"/>
					</g>
				</g>
			</g>
		</g>
		<g>
			
				<linearGradient id="SVGID_00000055698407245251144190000000410663223164003727_" gradientUnits="userSpaceOnUse" x1="976.1136" y1="1500.6647" x2="539.1768" y2="2757.7">
				<stop  offset="0" style="stop-color:#FEBBBA"/>
				<stop  offset="1" style="stop-color:#FF928E"/>
			</linearGradient>
			<path style="fill:url(#SVGID_00000055698407245251144190000000410663223164003727_);" d="M1010.691,2323.818
				c0,0-699.253-345.494-470.572-599.875c228.681-254.38,655.016-152.703,676.614,115.033
				C1238.331,2106.712,719.424,2043.899,1010.691,2323.818z"/>
			<g>
				<path style="fill:#FFFFFF;" d="M907.873,1793.007H599.27c-1.858,0-3.361-1.505-3.361-3.361c0-1.856,1.503-3.361,3.361-3.361
					h308.603c1.858,0,3.361,1.505,3.361,3.361C911.234,1791.502,909.731,1793.007,907.873,1793.007z"/>
				<path style="fill:#FFFFFF;" d="M1091.074,1793.007h-91.566c-1.858,0-3.361-1.505-3.361-3.361c0-1.856,1.503-3.361,3.361-3.361
					h91.566c1.858,0,3.361,1.505,3.361,3.361C1094.435,1791.502,1092.931,1793.007,1091.074,1793.007z"/>
				<path style="fill:#FFFFFF;" d="M704.752,1855.483H588.875c-1.858,0-3.361-1.505-3.361-3.361c0-1.856,1.503-3.361,3.361-3.361
					h115.878c1.858,0,3.361,1.505,3.361,3.361C708.113,1853.978,706.61,1855.483,704.752,1855.483z"/>
				<path style="fill:#FFFFFF;" d="M1080.679,1855.483H874.781c-1.858,0-3.361-1.505-3.361-3.361c0-1.856,1.503-3.361,3.361-3.361
					h205.898c1.858,0,3.361,1.505,3.361,3.361C1084.04,1853.978,1082.536,1855.483,1080.679,1855.483z"/>
				<path style="fill:#FFFFFF;" d="M886.512,1917.962H578.48c-1.858,0-3.361-1.505-3.361-3.361s1.503-3.361,3.361-3.361h308.032
					c1.858,0,3.361,1.505,3.361,3.361S888.37,1917.962,886.512,1917.962z"/>
				<path style="fill:#FFFFFF;" d="M1070.28,1917.962H963.646c-1.858,0-3.361-1.505-3.361-3.361s1.503-3.361,3.361-3.361h106.635
					c1.858,0,3.361,1.505,3.361,3.361S1072.138,1917.962,1070.28,1917.962z"/>
			</g>
		</g>
		<g>
			
				<linearGradient id="SVGID_00000100369782653759719220000013566763263109037457_" gradientUnits="userSpaceOnUse" x1="2937.9922" y1="1452.0421" x2="3482.4844" y2="484.0575">
				<stop  offset="0" style="stop-color:#FEBBBA"/>
				<stop  offset="1" style="stop-color:#FF928E"/>
			</linearGradient>
			<path style="fill:url(#SVGID_00000100369782653759719220000013566763263109037457_);" d="M2590.428,1682.975
				c2.231-4.266,8.545-3.594,9.833,1.045c4.772,17.173,16.318,47.139,40.548,57.779c1.22,0.536,2.377,1.078,3.494,1.624
				c1.099-3.294,1.114-7.12-1.517-11.143c-7.533-11.512,6.066-27.236,6.066-27.236s0.9,13.848,11.426,22.567
				c9.066,7.511,13.419,24.223,7.224,37.934c-13.114,50.936-32.751,118.305,43.741,167.522
				c76.491,49.218,184.213-92.885,184.213-92.885l-53.465,169.492c0,0-82.524,60.898-178.512-24.734
				c-95.99-85.632-32.365-210.237-32.365-210.237S2557.899,1745.168,2590.428,1682.975z"/>
			
				<linearGradient id="SVGID_00000038408004162016430120000006420361147415458217_" gradientUnits="userSpaceOnUse" x1="-5616.7856" y1="1790.1887" x2="-5841.5649" y2="2057.28" gradientTransform="matrix(0.9241 0.3937 -0.195 1.0989 8861.0273 1798.55)">
				<stop  offset="0" style="stop-color:#09005D"/>
				<stop  offset="1" style="stop-color:#1A0F91"/>
			</linearGradient>
			<path style="fill:url(#SVGID_00000038408004162016430120000006420361147415458217_);" d="M2905.266,1604.176
				c0,0-27.926-117.386,81.175-78.646c0,0,51.411-6.6,57.761,54.379c0,0,35.219,29.881,13.857,80.629
				c0,0,96.813-40.133,146.846,71.269c50.034,111.403,13.723,167.889-27.198,180.23c0,0,35.202,23.625,22.045,69.989
				c-13.157,46.363-92.421,73.771-143.976,12.297c0,0-135.305,12.043-139.845-107.177c0,0-66.659-55.573-5.908-149.238
				C2970.773,1644.244,2905.266,1604.176,2905.266,1604.176z"/>
			
				<linearGradient id="SVGID_00000104667074442615646640000002384424191319279266_" gradientUnits="userSpaceOnUse" x1="2962.8101" y1="2081.8035" x2="3060.1184" y2="2680.2466">
				<stop  offset="0" style="stop-color:#4F52FF"/>
				<stop  offset="1" style="stop-color:#4042E2"/>
			</linearGradient>
			<path style="fill:url(#SVGID_00000104667074442615646640000002384424191319279266_);" d="M2902.597,1821.563
				c22.882-6.86,89.503-19.524,152.873,38.956c10.748,9.918,15.14,24.989,11.307,39.102
				c-17.021,62.662-61.928,247.794-22.552,327.897c0,0-69.39,76.493-145.092,14.841c0,0-33.965-148.033-78.453-213.019
				c-30.714-44.866,48.976-168.479,69.139-198.343C2892.873,1826.476,2897.372,1823.13,2902.597,1821.563z"/>
			
				<linearGradient id="SVGID_00000150089529998532446360000008981423368823709589_" gradientUnits="userSpaceOnUse" x1="-5682.8486" y1="2783.3506" x2="-5664.5347" y2="2653.3215" gradientTransform="matrix(0.9602 0.2794 -0.2794 0.9602 9146.2822 797.6744)">
				<stop  offset="0" style="stop-color:#FEBBBA"/>
				<stop  offset="1" style="stop-color:#FF928E"/>
			</linearGradient>
			<path style="fill:url(#SVGID_00000150089529998532446360000008981423368823709589_);" d="M2965.774,1697.07
				c0,0,33.84,95.718,36.385,137.945c0,0-37.401,17.006-72.641-11.698c0,0-3.698-95.606-9.041-112.726L2965.774,1697.07z"/>
			
				<linearGradient id="SVGID_00000093893235444486898970000012461524390629858180_" gradientUnits="userSpaceOnUse" x1="-5766.8105" y1="2504.7351" x2="-5595.5708" y2="2701.6147" gradientTransform="matrix(0.9602 0.2794 -0.2794 0.9602 9146.2822 797.6744)">
				<stop  offset="0" style="stop-color:#FEBBBA"/>
				<stop  offset="1" style="stop-color:#FF928E"/>
			</linearGradient>
			<path style="fill:url(#SVGID_00000093893235444486898970000012461524390629858180_);" d="M2918.771,1566.562
				c0,0-88.51,123.865-35.601,159.842c52.908,35.978,115.915-52.046,115.915-52.046s20.537-67.796-0.938-90.794
				C2976.672,1560.564,2918.771,1566.562,2918.771,1566.562z"/>
			
				<linearGradient id="SVGID_00000161602715763280182670000010321269201561154969_" gradientUnits="userSpaceOnUse" x1="-5465.0049" y1="2221.8279" x2="-5689.7969" y2="2488.9343" gradientTransform="matrix(0.9602 0.2794 -0.2794 0.9602 9146.2822 797.6744)">
				<stop  offset="0" style="stop-color:#09005D"/>
				<stop  offset="1" style="stop-color:#1A0F91"/>
			</linearGradient>
			<path style="fill:url(#SVGID_00000161602715763280182670000010321269201561154969_);" d="M2959.738,1536.961
				c0,0-40.661,9.635-46.359,28.031c-5.699,18.398,57.661,35.458,75.414,36.293l14.304,74.239c0,0,42.287-69.839,25.536-110.172
				C3011.883,1525.018,2959.738,1536.961,2959.738,1536.961z"/>
			
				<linearGradient id="SVGID_00000066488333462064342960000016096571120310028419_" gradientUnits="userSpaceOnUse" x1="-5724.0278" y1="2467.5203" x2="-5552.7896" y2="2664.3984" gradientTransform="matrix(0.9602 0.2794 -0.2794 0.9602 9146.2822 797.6744)">
				<stop  offset="0" style="stop-color:#FEBBBA"/>
				<stop  offset="1" style="stop-color:#FF928E"/>
			</linearGradient>
			<path style="fill:url(#SVGID_00000066488333462064342960000016096571120310028419_);" d="M2981.926,1665.243
				c0,0,34.451-39.898,48.154-13.887s-31.009,45.538-46.487,32.768L2981.926,1665.243z"/>
			
				<linearGradient id="SVGID_00000141422180442371037870000015293691576067123598_" gradientUnits="userSpaceOnUse" x1="5005.3271" y1="3364.1758" x2="5413.8667" y2="2643.0151" gradientTransform="matrix(-1 -0.0095 -0.0095 1 8251.7725 56.9446)">
				<stop  offset="0" style="stop-color:#FEBBBA"/>
				<stop  offset="1" style="stop-color:#FF928E"/>
			</linearGradient>
			<path style="fill:url(#SVGID_00000141422180442371037870000015293691576067123598_);" d="M2810.761,2553.167
				c0.26,6.721-11.539,60.025-17.961,88.458c-2.584,11.44-0.785,23.413,5.04,33.592l222.387,374.289
				c2.69,4.527,4.648,9.432,5.838,14.562c4.076,17.564,12.529,60.611,8.115,99.771l-11.505,23.894l49.755-11.297l10.825-133.616
				l-14.085-8.589c-12.168-7.419-21.644-18.511-27.069-31.69c-20.109-48.846-70.045-173.184-82.917-233.78
				c-14.628-68.867-91.103-124.802-91.103-124.802l13.435-31.764L2810.761,2553.167z"/>
			
				<linearGradient id="SVGID_00000083070693803237869730000000557386985418940095_" gradientUnits="userSpaceOnUse" x1="5094.3857" y1="3109.2046" x2="5213.8027" y2="3109.2046" gradientTransform="matrix(-1 -0.0095 -0.0095 1 8251.7725 56.9446)">
				<stop  offset="0" style="stop-color:#09005D"/>
				<stop  offset="1" style="stop-color:#1A0F91"/>
			</linearGradient>
			<path style="fill:url(#SVGID_00000083070693803237869730000000557386985418940095_);" d="M3127.729,3130.458
				c0,0-26.869-42.597-30.03-59.179c-3.162-16.582-11.961-45.863-28.527-37.047c0,0-7.806,80.548-5.115,112.022
				c2.691,31.474-35.58,30.462-35.58,30.462s-10.548,1.482-18.272,9.205c-5.334,5.333-1.52,14.584,6.007,15.069
				c12.523,0.807,32.417,1.018,53.304-3.018c7.3-1.411,12.712-7.623,13.154-15.044l5.514-92.706l33.892,42.796L3127.729,3130.458z"
				/>
			
				<linearGradient id="SVGID_00000058582780204927514200000014436662301674990721_" gradientUnits="userSpaceOnUse" x1="5468.3027" y1="2830.6797" x2="4857.3164" y2="3026.0535" gradientTransform="matrix(-1 -0.0095 -0.0095 1 8251.7725 56.9446)">
				<stop  offset="0" style="stop-color:#FEBBBA"/>
				<stop  offset="1" style="stop-color:#FF928E"/>
			</linearGradient>
			<path style="fill:url(#SVGID_00000058582780204927514200000014436662301674990721_);" d="M2943.612,2612.787
				c0,0,7.843,334.798,8.906,382.348c1.062,47.55-7.509,152.925-55.176,184.423l20.742,15.357c0,0,25.922-22.032,51.246-64.433
				c28.448-47.633,37.051-56.335,37.051-56.335l-9.44-19.333c-4.133-8.463-5.347-18.038-3.444-27.263
				c10.286-49.856,44.651-215.682,54.024-251.394c11.065-42.155,11.853-98.449-26.644-145.571
				C2982.381,2583.465,2943.612,2612.787,2943.612,2612.787z"/>
			
				<linearGradient id="SVGID_00000014601787666407472780000003062001573890676391_" gradientUnits="userSpaceOnUse" x1="5205.1011" y1="3130.7725" x2="5347.458" y2="3130.7725" gradientTransform="matrix(-1 -0.0095 -0.0095 1 8251.7725 56.9446)">
				<stop  offset="0" style="stop-color:#09005D"/>
				<stop  offset="1" style="stop-color:#1A0F91"/>
			</linearGradient>
			<path style="fill:url(#SVGID_00000014601787666407472780000003062001573890676391_);" d="M2987.63,3210.003
				c1.479,0.014,2.736-1.045,2.944-2.509c1.588-11.162,8.189-55.91,13.594-67.496c6.19-13.271,26.41-69.123-0.011-73.864
				c0,0-65.685,95.965-78.293,108.904c-12.609,12.939-28.522,4.52-28.522,4.52s-12.284,3.629-21.55,15.469
				c-4.409,5.635-0.302,13.907,6.854,13.975l44.243,0.422c12.848,0.123,24.405-7.683,29.181-19.612
				c7.788-19.451,21.166-47.983,36.758-60.64l-8.102,77.576C2984.544,3208.477,2985.891,3209.987,2987.63,3210.003L2987.63,3210.003
				z"/>
			
				<linearGradient id="SVGID_00000181791270602520249070000004937765688155490739_" gradientUnits="userSpaceOnUse" x1="5399.4834" y1="2173.3677" x2="5058.4404" y2="2933.6099" gradientTransform="matrix(-1 -0.0095 -0.0095 1 8251.7725 56.9446)">
				<stop  offset="0" style="stop-color:#09005D"/>
				<stop  offset="1" style="stop-color:#1A0F91"/>
			</linearGradient>
			<path style="fill:url(#SVGID_00000181791270602520249070000004937765688155490739_);" d="M2888.662,2206.26
				c0,0,9.969,31.778-5.347,84.118l-95.013,331.794c-1.493,5.214,1.321,10.67,6.425,12.501
				c28.421,10.201,121.848,39.031,249.385,30.239c6.421-0.443,11.805-4.99,13.202-11.273c8.404-37.825,37.075-166.883,42.979-193.4
				c22.494-101.042,47.611-210.007-62.883-275.896C2986.486,2206.155,2938.991,2219.011,2888.662,2206.26z"/>
			
				<linearGradient id="SVGID_00000178166264651672385780000005284829788367017103_" gradientUnits="userSpaceOnUse" x1="5098.3403" y1="2192.4275" x2="5776.0591" y2="1417.2168" gradientTransform="matrix(-0.9922 -0.1247 -0.1247 0.9922 8507.8779 715.4178)">
				<stop  offset="0" style="stop-color:#FEBBBA"/>
				<stop  offset="1" style="stop-color:#FF928E"/>
			</linearGradient>
			<path style="fill:url(#SVGID_00000178166264651672385780000005284829788367017103_);" d="M3064.537,1873.022
				c0,0,108.104,89.84,134.933,212.604c26.829,122.763-157.969,135.812-157.969,135.812s-25.087-28.014-54.87-18.023
				c-29.783,9.991-2.306-48.892,32.542-48.737c34.846,0.155,18.704,27.709,68,5.379c48.02-21.752,77.701-89.024-44.82-191
				c-7.102-5.911-12.769-13.447-16.181-22.035C3002.368,1887.106,3021.248,1847.83,3064.537,1873.022z"/>
		</g>
		<g>
			<path style="fill:#91B3FA;" d="M2546.631,2223.868c0.259-9.528-12.455-13.078-17.133-4.774
				c-45.229,80.286-170.423,287.094-307.918,379.486c-223.874,150.435-418.156,436.043-344.783,626.461
				C1876.796,3225.042,2518.365,3262.004,2546.631,2223.868z"/>
			<path style="opacity:0.43;fill:#FFFFFF;" d="M2499.662,2342.716c-0.909,2.78-1.874,4.983-2.81,7.407l-2.911,7.08l-5.97,14.08
				c-4.047,9.356-8.235,18.645-12.424,27.935c-8.445,18.548-17.117,36.99-25.959,55.352
				c-17.757,36.691-36.512,72.891-55.802,108.805c-19.241,35.945-39.496,71.346-60.496,106.303
				c-21.026,34.937-42.558,69.592-65.216,103.518c-45.181,67.928-94.12,133.452-147.486,195.259
				c-27.01,30.61-54.834,60.531-84.335,88.773c-29.698,28.013-60.601,54.782-93.322,79.163c-0.745,0.555-1.799,0.401-2.353-0.344
				c-0.538-0.725-0.407-1.742,0.289-2.307l0.016-0.014c31.585-25.592,61.75-52.82,90.512-81.474
				c28.851-28.572,56.012-58.794,82.349-89.678c26.327-30.906,51.417-62.86,75.761-95.361
				c24.342-32.517,47.317-66.031,70.116-99.652c45.322-67.46,87-137.325,126.759-208.246
				c19.805-35.508,38.888-71.422,57.341-107.662c9.256-18.104,18.348-36.296,27.213-54.598l13.077-27.552l6.4-13.836l3.118-6.945
				c0.984-2.289,2.081-4.742,2.855-6.767l0.138-0.354c0.328-0.859,1.29-1.289,2.15-0.96
				C2499.504,2340.961,2499.934,2341.878,2499.662,2342.716z"/>
		</g>
		<g>
			<path style="fill:#BDD0FB;" d="M2092.283,2379.688c-1.82-6.843-11.625-6.698-13.212,0.203
				c-15.334,66.719-61.024,240.406-139.55,335.161c-127.859,154.283-206.194,398.65-113.856,518.885
				C1825.665,3233.937,2290.553,3125.296,2092.283,2379.688z"/>
			<path style="opacity:0.43;fill:#FFFFFF;" d="M2084.253,2474.222c-0.052,2.271-0.269,4.007-0.414,5.946l-0.555,5.666
				l-1.231,11.303c-0.876,7.526-1.881,15.032-2.879,22.54c-2.052,15.007-4.293,29.987-6.669,44.947
				c-4.828,29.907-10.523,59.669-16.635,89.348c-6.056,29.692-13.011,59.202-20.609,88.546c-7.612,29.34-15.64,58.585-24.63,87.553
				c-17.882,57.955-39.079,114.952-64.192,170.237c-12.896,27.482-26.518,54.641-41.688,80.953
				c-15.404,26.163-31.897,51.707-50.268,75.855c-0.561,0.739-1.615,0.882-2.357,0.32c-0.712-0.543-0.86-1.563-0.361-2.297
				c33.995-49.891,62.291-103.333,86.446-158.533c12.184-27.559,23.324-55.58,33.788-83.847
				c10.477-28.273,19.72-56.984,28.933-85.699c18.161-57.536,33.102-116.059,46.687-174.885
				c6.719-29.434,12.811-59.015,18.437-88.687c2.846-14.831,5.557-29.689,8.084-44.578l3.617-22.359l1.707-11.189l0.794-5.596
				c0.23-1.823,0.502-3.838,0.64-5.345l0.036-0.387c0.082-0.915,0.89-1.589,1.805-1.507
				C2083.616,2472.606,2084.272,2473.356,2084.253,2474.222z"/>
		</g>
	</g>
</g>
</svg>
